<?xml version="1.0" standalone="no"?><!DOCTYPE svg PUBLIC "-//W3C//DTD SVG 1.1//EN" "http://www.w3.org/Graphics/SVG/1.1/DTD/svg11.dtd"><svg height="1024" node-id="1" sillyvg="true" template-height="1024" template-width="1024" version="1.1" viewBox="0 0 1024 1024" width="1024" xmlns="http://www.w3.org/2000/svg" xmlns:xlink="http://www.w3.org/1999/xlink"><defs node-id="139"><linearGradient gradientUnits="objectBoundingBox" id="linearGradient-1" node-id="5" spreadMethod="pad" x1="-0.1358235" x2="0.5" y1="0.5" y2="0.47203198"><stop offset="0" stop-color="#98d6fa"></stop><stop offset="1" stop-color="#47b0f1"></stop></linearGradient><linearGradient gradientUnits="objectBoundingBox" id="linearGradient-2" node-id="8" spreadMethod="pad" x1="-0.0000000000000009337728" x2="1" y1="-0.031055901" y2="-0.031055901"><stop offset="0" stop-color="#fff5de"></stop><stop offset="1" stop-color="#fbd2ac"></stop></linearGradient><linearGradient gradientUnits="objectBoundingBox" id="linearGradient-3" node-id="11" spreadMethod="pad" x1="-0.1358235" x2="0.5" y1="0.5" y2="0.47628444"><stop offset="0" stop-color="#98d6fa"></stop><stop offset="1" stop-color="#47b0f1"></stop></linearGradient><linearGradient gradientUnits="objectBoundingBox" id="linearGradient-4" node-id="14" spreadMethod="pad" x1="-0.1358235" x2="0.5" y1="0.5" y2="0.47629464"><stop offset="0" stop-color="#98d6fa"></stop><stop offset="1" stop-color="#47b0f1"></stop></linearGradient><linearGradient gradientUnits="objectBoundingBox" id="linearGradient-5" node-id="17" spreadMethod="pad" x1="-0.1358235" x2="0.5" y1="0.5" y2="0.47629884"><stop offset="0" stop-color="#98d6fa"></stop><stop offset="1" stop-color="#47b0f1"></stop></linearGradient><linearGradient gradientUnits="objectBoundingBox" id="linearGradient-6" node-id="20" spreadMethod="pad" x1="-0.13582349" x2="0.49999997" y1="0.49999997" y2="0.43423018"><stop offset="0" stop-color="#98d6fa"></stop><stop offset="1" stop-color="#47b0f1"></stop></linearGradient><linearGradient gradientUnits="objectBoundingBox" id="linearGradient-7" node-id="23" spreadMethod="pad" x1="0.4313989" x2="0.6033656" y1="-0.06451612" y2="0"><stop offset="0.031572677" stop-color="#afdef9"></stop><stop offset="1" stop-color="#7cc9f9"></stop></linearGradient><linearGradient gradientUnits="objectBoundingBox" id="linearGradient-8" node-id="26" spreadMethod="pad" x1="0.05920258" x2="0.5996637" y1="0.60857147" y2="0.3705422"><stop offset="0" stop-color="#98d6fa"></stop><stop offset="1" stop-color="#47b0f1"></stop></linearGradient><linearGradient gradientUnits="objectBoundingBox" id="linearGradient-9" node-id="29" spreadMethod="pad" x1="0.44492638" x2="0.58298296" y1="-0.06451613" y2="0"><stop offset="0.031572677" stop-color="#afdef9"></stop><stop offset="1" stop-color="#7cc9f9"></stop></linearGradient><linearGradient gradientUnits="objectBoundingBox" id="linearGradient-10" node-id="32" spreadMethod="pad" x1="0.28403884" x2="0.5" y1="0.8700849" y2="0.30481097"><stop offset="0" stop-color="#98d6fa"></stop><stop offset="1" stop-color="#47b0f1"></stop></linearGradient><linearGradient gradientUnits="objectBoundingBox" id="linearGradient-11" node-id="35" spreadMethod="pad" x1="0.8017669" x2="0.40161258" y1="0.7812446" y2="0.012035674"><stop offset="0" stop-color="#98d6fa"></stop><stop offset="1" stop-color="#47b0f1"></stop></linearGradient><linearGradient gradientUnits="objectBoundingBox" id="linearGradient-12" node-id="38" spreadMethod="pad" x1="0.1696366" x2="0.73110634" y1="0.776033" y2="0.27310416"><stop offset="0" stop-color="#98d6fa"></stop><stop offset="1" stop-color="#47b0f1"></stop></linearGradient><linearGradient gradientUnits="objectBoundingBox" id="linearGradient-14" node-id="44" spreadMethod="pad" x1="0" x2="0.84977597" y1="0.6436173" y2="0.3819483"><stop offset="0" stop-color="#98d6fa"></stop><stop offset="1" stop-color="#47b0f1"></stop></linearGradient><linearGradient gradientUnits="objectBoundingBox" id="linearGradient-15" node-id="47" spreadMethod="pad" x1="0" x2="0.84977597" y1="0.63935465" y2="0.38545215"><stop offset="0" stop-color="#98d6fa"></stop><stop offset="1" stop-color="#47b0f1"></stop></linearGradient><linearGradient gradientUnits="objectBoundingBox" id="linearGradient-16" node-id="50" spreadMethod="pad" x1="0.49235326" x2="0.5" y1="0.8700849" y2="0.30481097"><stop offset="0" stop-color="#98d6fa"></stop><stop offset="1" stop-color="#47b0f1"></stop></linearGradient><linearGradient gradientUnits="objectBoundingBox" id="linearGradient-17" node-id="53" spreadMethod="pad" x1="-0.54080534" x2="0.5" y1="0.5706925" y2="0.4627156"><stop offset="0" stop-color="#98d6fa"></stop><stop offset="1" stop-color="#47b0f1"></stop></linearGradient><linearGradient gradientUnits="objectBoundingBox" id="linearGradient-18" node-id="56" spreadMethod="pad" x1="0.22355923" x2="0.5" y1="-0.089142084" y2="0.77381057"><stop offset="0" stop-color="#98d6fa"></stop><stop offset="1" stop-color="#47b0f1"></stop></linearGradient><linearGradient gradientUnits="objectBoundingBox" id="linearGradient-19" node-id="59" spreadMethod="pad" x1="0.4536279" x2="0.5" y1="-0.11452465" y2="0.7856074"><stop offset="0" stop-color="#98d6fa"></stop><stop offset="1" stop-color="#47b0f1"></stop></linearGradient><linearGradient gradientUnits="objectBoundingBox" id="linearGradient-20" node-id="62" spreadMethod="pad" x1="0.47746408" x2="0.5" y1="-0.11452465" y2="0.7856074"><stop offset="0" stop-color="#98d6fa"></stop><stop offset="1" stop-color="#47b0f1"></stop></linearGradient><linearGradient gradientUnits="objectBoundingBox" id="linearGradient-21" node-id="65" spreadMethod="pad" x1="0.4389308" x2="0.5" y1="-0.11452465" y2="0.7856074"><stop offset="0" stop-color="#98d6fa"></stop><stop offset="1" stop-color="#47b0f1"></stop></linearGradient><linearGradient gradientUnits="objectBoundingBox" id="linearGradient-22" node-id="68" spreadMethod="pad" x1="0" x2="1.1322753" y1="0.776033" y2="0.776033"><stop offset="0" stop-color="#98d6fa"></stop><stop offset="1" stop-color="#47b0f1"></stop></linearGradient><linearGradient gradientUnits="objectBoundingBox" id="linearGradient-23" node-id="71" spreadMethod="pad" x1="0" x2="0.99999994" y1="-0.11764705" y2="-0.11764705"><stop offset="0" stop-color="#f5dda7"></stop><stop offset="1" stop-color="#fa9a41"></stop></linearGradient><linearGradient gradientUnits="objectBoundingBox" id="linearGradient-24" node-id="74" spreadMethod="pad" x1="0.86275023" x2="-0.000000000000027057475" y1="-0.028050492" y2="-0.028050492"><stop offset="0" stop-color="#1d181c"></stop><stop offset="0.3" stop-color="#2c2422"></stop><stop offset="0.5" stop-color="#42352c"></stop><stop offset="0.7" stop-color="#57352c"></stop><stop offset="1" stop-color="#923629"></stop></linearGradient><linearGradient gradientUnits="objectBoundingBox" id="linearGradient-25" node-id="80" spreadMethod="pad" x1="0.86275023" x2="-0.000000000000027057475" y1="-0.028050492" y2="-0.028050492"><stop offset="0" stop-color="#1d181c"></stop><stop offset="0.3" stop-color="#2c2422"></stop><stop offset="0.5" stop-color="#42352c"></stop><stop offset="0.7" stop-color="#57352c"></stop><stop offset="1" stop-color="#923629"></stop></linearGradient><linearGradient gradientUnits="objectBoundingBox" id="linearGradient-26" node-id="86" spreadMethod="pad" x1="1" x2="0.0058146594" y1="-0.029698754" y2="-0.029698754"><stop offset="0" stop-color="#ffb859"></stop><stop offset="1" stop-color="#f97b61"></stop></linearGradient><linearGradient gradientUnits="objectBoundingBox" id="linearGradient-27" node-id="89" spreadMethod="pad" x1="1" x2="0.0058146594" y1="-0.029698754" y2="-0.029698754"><stop offset="0" stop-color="#ffb859"></stop><stop offset="1" stop-color="#f97b61"></stop></linearGradient></defs><g node-id="367"><path d="M 0.00 0.00 L 1024.00 0.00 L 1024.00 1024.00 L 0.00 1024.00 Z" fill="#ffffff" fill-opacity="0" fill-rule="evenodd" group-id="1" id="矩形" node-id="93" stroke="none" target-height="1024" target-width="1024" target-x="0" target-y="0"></path></g><g node-id="368"><g node-id="372"><path d="M 76.80 581.77 L 73.83 568.49 L 71.97 559.38 L 69.82 547.84 L 67.80 535.55 L 65.82 521.45 L 64.17 506.83 L 62.88 491.00 L 62.32 480.31 L 62.04 469.36 L 62.05 458.15 L 62.42 446.95 L 63.20 435.75 L 64.39 424.55 L 66.06 413.42 L 68.25 402.53 L 70.95 391.87 L 73.38 383.98 L 76.16 376.33 L 79.29 368.94 L 82.78 361.77 L 86.68 354.81 L 91.00 348.19 L 95.75 341.89 L 100.92 335.90 L 106.51 330.33 L 112.60 325.15 L 119.24 320.35 L 126.45 315.93 L 132.34 312.86 L 138.66 310.07 L 145.42 307.58 L 152.66 305.39 L 160.40 303.51 L 178.10 300.08 L 194.86 297.29 L 210.72 295.10 L 226.66 293.29 L 241.76 291.87 L 256.05 290.83 L 277.25 289.66 L 296.81 288.85 L 315.85 288.13 L 333.44 287.30 L 344.99 286.55 L 355.96 285.55 L 366.35 284.30 L 376.69 282.65 L 386.56 280.55 L 395.98 278.01 L 402.93 275.71 L 409.70 273.04 L 416.31 269.98 L 422.76 266.54 L 428.94 262.74 L 435.06 258.41 L 441.11 253.52 L 447.10 248.05 L 456.03 239.55 L 464.00 232.33 L 471.08 226.27 L 478.37 220.45 L 484.92 215.65 L 490.79 211.76 L 496.88 208.19 L 502.50 205.35 L 507.67 203.18 L 513.00 201.39 L 518.16 200.08 L 523.16 199.21 L 528.22 198.69 L 533.39 198.46 L 538.68 198.51 L 546.76 198.96 L 555.68 199.75 L 575.59 201.60 L 582.89 201.85 L 590.28 201.53 L 597.79 200.63 L 605.24 199.25 L 612.69 197.44 L 620.16 195.20 L 627.52 192.63 L 634.75 189.78 L 641.86 186.68 L 652.27 181.65 L 662.07 176.43 L 671.50 171.00 L 679.96 165.81 L 694.70 156.20 L 705.47 148.96 L 708.73 147.00 L 714.62 143.93 L 721.41 140.81 L 730.35 137.21 L 736.61 134.98 L 743.59 132.79 L 751.34 130.64 L 759.13 128.82 L 767.44 127.29 L 776.27 126.05 L 785.14 125.28 L 794.32 125.01 L 803.83 125.28 L 810.91 125.87 L 818.07 126.88 L 825.33 128.30 L 832.69 130.15 L 839.85 132.42 L 847.04 135.22 L 854.26 138.58 L 861.53 142.51 L 868.42 146.86 L 875.30 151.89 L 882.17 157.65 L 889.04 164.20 L 894.08 169.58 L 899.09 175.53 L 904.06 182.06 L 909.00 189.21 L 913.89 197.03 L 918.24 204.72 L 922.51 213.10 L 926.70 222.22 L 930.79 232.13 L 934.77 242.86 L 938.20 253.22 L 941.49 264.41 L 944.62 276.49 L 947.58 289.51 L 950.35 303.51 L 951.86 326.93 L 953.22 350.50 L 954.29 374.03 L 954.96 397.17 L 955.14 412.56 L 955.02 427.53 L 954.62 442.08 L 953.86 456.63 L 952.72 470.53 L 951.21 483.79 L 949.74 493.77 L 948.00 503.26 L 946.01 512.28 L 943.77 520.85 L 941.11 529.43 L 938.14 537.43 L 934.87 544.88 L 931.33 551.81 L 928.10 557.25 L 924.65 562.30 L 920.97 566.96 L 917.06 571.27 L 912.91 575.24 L 907.58 580.33 L 903.24 585.14 L 899.78 589.70 L 897.11 594.04 L 894.81 598.79 L 893.19 603.30 L 892.20 607.60 L 891.78 611.74 L 891.86 615.97 L 892.40 620.04 L 893.40 623.97 L 894.87 627.79 L 896.71 631.46 L 898.90 634.98 L 901.43 638.38 L 904.32 641.65 L 908.52 645.67 L 913.11 649.38 L 918.09 652.77 L 923.32 655.79 L 928.66 658.40 L 934.12 660.61 L 939.72 662.43 L 945.12 663.75 L 950.35 664.62 L 953.51 665.26 L 956.01 666.20 L 957.99 667.41 L 959.51 668.87 L 960.66 670.60 L 961.58 673.06 L 961.99 675.94 L 961.82 679.34 L 960.97 683.39 L 959.71 687.14 L 957.90 691.28 L 955.47 695.88 L 952.32 700.96 L 947.83 707.28 L 942.35 714.05 L 935.76 721.31 L 928.84 728.20 L 921.05 735.24 L 912.32 742.43 L 903.29 749.20 L 893.54 755.83 L 883.04 762.30 L 874.99 766.81 L 866.64 771.08 L 857.96 775.11 L 848.95 778.90 L 843.66 781.07 L 836.30 783.68 L 826.40 786.78 L 810.77 791.13 L 790.68 796.12 L 769.11 800.94 L 743.83 806.04 L 717.35 810.87 L 687.89 815.68 L 657.52 820.08 L 624.90 824.17 L 602.89 826.57 L 580.23 828.73 L 556.89 830.63 L 533.55 832.18 L 509.89 833.37 L 485.91 834.19 L 461.93 834.59 L 437.96 834.52 L 413.99 833.98 L 390.06 832.93 L 366.45 831.31 L 343.18 829.14 L 325.71 827.08 L 308.62 824.67 L 291.88 821.90 L 275.50 818.78 L 259.09 815.19 L 243.22 811.19 L 227.86 806.81 L 212.99 802.04 L 204.36 798.02 L 196.16 793.63 L 188.36 788.88 L 180.95 783.75 L 173.79 778.21 L 166.99 772.40 L 160.52 766.31 L 154.39 759.94 L 146.65 751.04 L 139.45 741.84 L 132.78 732.32 L 126.55 722.51 L 120.82 712.60 L 115.56 702.60 L 110.67 692.40 L 106.23 682.36 L 102.22 672.46 L 96.77 657.57 L 92.21 643.60 L 88.21 629.92 L 84.99 617.74 L 82.19 606.11 L 80.04 596.56 L 76.80 581.77 Z" fill="#47b0f1" fill-opacity="0.05" fill-rule="nonzero" group-id="2,6" id="路径-58" node-id="95" stroke="none" target-height="709.58" target-width="899.95" target-x="62.04" target-y="125.01"></path></g><g node-id="373"><path d="M 158.00 329.00 L 158.00 329.15 L 159.66 329.70 L 161.07 330.55 L 162.28 331.73 L 163.21 333.13 L 163.78 334.71 L 164.00 336.50 L 164.00 337.50 L 163.73 339.51 L 162.98 341.29 L 161.80 342.80 L 160.29 343.98 L 158.51 344.73 L 156.50 345.00 L 77.50 345.00 L 75.49 344.73 L 73.71 343.98 L 72.20 342.80 L 71.02 341.29 L 70.27 339.51 L 70.00 337.50 L 70.00 336.50 L 70.27 334.49 L 71.02 332.71 L 72.20 331.20 L 73.71 330.02 L 75.49 329.27 L 77.50 329.00 L 109.00 329.00 L 110.86 328.74 L 112.47 328.09 L 113.87 327.03 L 114.97 325.66 L 115.68 324.08 L 116.00 322.24 L 116.00 322.00 L 115.74 320.14 L 115.09 318.53 L 114.03 317.13 L 112.66 316.03 L 111.08 315.32 L 109.24 315.00 L 109.00 315.00 L 106.00 315.00 L 106.00 314.85 L 104.34 314.30 L 102.93 313.45 L 101.72 312.28 L 100.79 310.87 L 100.22 309.29 L 100.00 307.50 L 100.00 306.50 L 100.27 304.49 L 101.02 302.71 L 102.20 301.20 L 103.71 300.02 L 105.49 299.27 L 107.50 299.00 L 186.50 299.00 L 188.51 299.27 L 190.29 300.02 L 191.80 301.20 L 192.98 302.71 L 193.73 304.49 L 194.00 306.50 L 194.00 307.50 L 193.73 309.51 L 192.98 311.29 L 191.80 312.80 L 190.29 313.98 L 188.51 314.73 L 186.50 315.00 L 155.00 315.00 L 153.14 315.26 L 151.53 315.91 L 150.13 316.97 L 149.03 318.34 L 148.32 319.92 L 148.00 321.76 L 148.00 322.00 L 148.26 323.86 L 148.91 325.47 L 149.97 326.87 L 151.34 327.97 L 152.92 328.68 L 154.76 329.00 L 155.00 329.00 L 158.00 329.00 Z" fill="url(#linearGradient-1)" fill-opacity="0.1" fill-rule="nonzero" group-id="2,7" id="形状结合" node-id="96" stroke="none" target-height="46" target-width="124" target-x="70" target-y="299"></path></g><g node-id="374"><path d="M 858.00 159.00 L 858.00 159.15 L 859.66 159.70 L 861.07 160.55 L 862.28 161.73 L 863.21 163.13 L 863.78 164.71 L 864.00 166.50 L 864.00 167.50 L 863.73 169.51 L 862.98 171.29 L 861.80 172.80 L 860.29 173.98 L 858.51 174.73 L 856.50 175.00 L 777.50 175.00 L 775.49 174.73 L 773.71 173.98 L 772.20 172.80 L 771.02 171.29 L 770.27 169.51 L 770.00 167.50 L 770.00 166.50 L 770.27 164.49 L 771.02 162.71 L 772.20 161.20 L 773.71 160.02 L 775.49 159.27 L 777.50 159.00 L 809.00 159.00 L 810.86 158.74 L 812.47 158.09 L 813.87 157.03 L 814.97 155.66 L 815.68 154.08 L 816.00 152.24 L 816.00 152.00 L 815.74 150.14 L 815.09 148.53 L 814.03 147.13 L 812.66 146.03 L 811.08 145.32 L 809.24 145.00 L 809.00 145.00 L 806.00 145.00 L 806.00 144.85 L 804.34 144.30 L 802.93 143.45 L 801.72 142.28 L 800.79 140.87 L 800.22 139.29 L 800.00 137.50 L 800.00 136.50 L 800.27 134.49 L 801.02 132.71 L 802.20 131.20 L 803.71 130.02 L 805.49 129.27 L 807.50 129.00 L 886.50 129.00 L 888.51 129.27 L 890.29 130.02 L 891.80 131.20 L 892.98 132.71 L 893.73 134.49 L 894.00 136.50 L 894.00 137.50 L 893.73 139.51 L 892.98 141.29 L 891.80 142.80 L 890.29 143.98 L 888.51 144.73 L 886.50 145.00 L 855.00 145.00 L 853.14 145.26 L 851.53 145.91 L 850.13 146.97 L 849.03 148.34 L 848.32 149.92 L 848.00 151.76 L 848.00 152.00 L 848.26 153.86 L 848.91 155.47 L 849.97 156.87 L 851.34 157.97 L 852.92 158.68 L 854.76 159.00 L 855.00 159.00 L 858.00 159.00 Z" fill="url(#linearGradient-1)" fill-opacity="0.1" fill-rule="nonzero" group-id="2,8" id="形状结合" node-id="97" stroke="none" target-height="46" target-width="124" target-x="770" target-y="129"></path></g><path d="M 514.52 712.00 L 547.37 712.23 L 579.21 712.89 L 610.06 713.95 L 640.94 715.46 L 670.45 717.33 L 698.63 719.55 L 726.81 722.21 L 753.27 725.16 L 778.08 728.37 L 802.87 732.07 L 825.57 735.96 L 846.30 740.01 L 859.80 740.35 L 872.74 741.09 L 885.14 742.23 L 897.51 743.80 L 909.11 745.69 L 919.97 747.90 L 930.76 750.55 L 940.56 753.43 L 949.44 756.51 L 958.16 760.10 L 965.70 763.79 L 972.17 767.57 L 976.89 770.83 L 980.85 774.09 L 984.13 777.33 L 986.82 780.57 L 989.12 784.18 L 990.72 787.76 L 991.67 791.35 L 992.00 795.00 L 991.69 798.54 L 990.79 802.03 L 989.29 805.52 L 987.11 809.02 L 984.58 812.18 L 981.48 815.34 L 977.74 818.52 L 973.29 821.71 L 967.16 825.42 L 960.02 829.05 L 951.76 832.59 L 943.35 835.66 L 934.04 838.54 L 923.79 841.22 L 913.46 843.47 L 902.42 845.45 L 890.61 847.13 L 877.57 850.71 L 863.22 854.25 L 847.45 857.75 L 847.86 860.86 L 848.00 864.00 L 847.72 868.37 L 846.93 872.68 L 845.63 876.97 L 843.78 881.25 L 841.34 885.55 L 838.62 889.49 L 835.40 893.43 L 831.65 897.38 L 827.33 901.35 L 822.39 905.34 L 816.17 909.76 L 809.18 914.15 L 801.36 918.50 L 792.64 922.79 L 783.98 926.61 L 774.61 930.31 L 764.51 933.89 L 753.61 937.35 L 742.85 940.40 L 731.48 943.27 L 719.48 945.96 L 706.82 948.45 L 690.03 951.24 L 672.36 953.60 L 653.78 955.52 L 635.17 956.87 L 615.92 957.71 L 596.00 958.00 L 580.31 957.82 L 565.05 957.30 L 550.19 956.45 L 535.72 955.29 L 521.12 953.78 L 507.09 951.98 L 493.63 949.92 L 480.69 947.60 L 467.61 944.90 L 455.27 941.99 L 443.62 938.87 L 432.64 935.58 L 421.53 931.83 L 411.30 927.95 L 401.91 923.95 L 393.29 919.85 L 384.63 915.21 L 376.98 910.52 L 370.25 905.81 L 364.36 901.08 L 359.76 896.80 L 355.83 892.55 L 352.52 888.32 L 349.79 884.11 L 347.59 879.89 L 319.63 877.55 L 293.22 874.92 L 268.31 872.02 L 243.41 868.68 L 220.39 865.13 L 199.15 861.41 L 177.96 857.17 L 158.97 852.84 L 142.02 848.43 L 129.15 844.64 L 117.74 840.88 L 107.67 837.15 L 98.84 833.46 L 91.44 829.95 L 85.12 826.54 L 79.76 823.22 L 75.26 819.99 L 71.53 816.86 L 68.41 813.69 L 66.00 810.64 L 64.21 807.66 L 62.98 804.75 L 62.26 801.88 L 62.00 799.00 L 62.25 796.17 L 62.95 793.34 L 64.14 790.48 L 65.86 787.57 L 68.18 784.57 L 71.18 781.47 L 74.78 778.38 L 79.12 775.20 L 84.30 771.94 L 90.39 768.58 L 97.53 765.14 L 106.05 761.50 L 115.77 757.82 L 126.79 754.10 L 139.22 750.36 L 155.59 745.99 L 173.95 741.69 L 194.45 737.48 L 215.00 733.77 L 237.29 730.22 L 261.41 726.86 L 285.55 723.93 L 311.15 721.25 L 338.28 718.84 L 365.40 716.83 L 393.72 715.13 L 423.25 713.77 L 452.77 712.80 L 483.18 712.21 L 514.52 712.00 Z" fill="url(#linearGradient-2)" fill-rule="nonzero" group-id="2" id="形状结合" node-id="98" stroke="none" target-height="246" target-width="930" target-x="62" target-y="712"></path><path d="M 686.61 226.65 L 686.61 226.55 L 685.01 222.93 L 683.00 219.68 L 680.58 216.79 L 677.80 214.22 L 674.75 212.00 L 671.42 210.13 L 667.89 208.62 L 664.26 207.48 L 660.49 206.70 L 656.66 206.29 L 652.90 206.27 L 649.17 206.62 L 652.02 205.05 L 655.10 203.70 L 658.44 202.57 L 661.87 201.75 L 665.32 201.25 L 668.81 201.07 L 672.29 201.26 L 675.58 201.84 L 678.72 202.80 L 681.66 204.21 L 684.28 206.07 L 686.61 208.44 L 686.61 208.53 L 688.93 206.19 L 691.55 204.33 L 694.50 202.93 L 697.65 201.97 L 700.95 201.39 L 704.43 201.20 L 707.93 201.37 L 711.38 201.86 L 714.81 202.68 L 718.15 203.79 L 721.22 205.14 L 724.04 206.71 L 720.32 206.38 L 716.56 206.43 L 712.73 206.85 L 708.97 207.63 L 705.33 208.78 L 701.81 210.29 L 698.47 212.16 L 695.42 214.37 L 692.64 216.93 L 690.22 219.81 L 688.21 223.04 L 686.61 226.64 L 686.61 226.65 Z" fill="url(#linearGradient-3)" fill-rule="nonzero" group-id="2,9" id="路径" node-id="100" stroke="none" target-height="25.579987" target-width="74.869995" target-x="649.17" target-y="201.07"></path><path d="M 770.03 214.11 L 770.03 214.04 L 768.91 211.52 L 767.52 209.27 L 765.87 207.27 L 763.93 205.50 L 761.04 203.50 L 757.92 201.95 L 754.53 200.83 L 751.02 200.16 L 747.55 199.97 L 744.09 200.23 L 747.10 198.65 L 750.51 197.42 L 754.08 196.65 L 757.70 196.39 L 760.11 196.51 L 762.39 196.91 L 764.57 197.58 L 766.61 198.56 L 768.42 199.85 L 770.03 201.49 L 770.03 201.55 L 771.65 199.93 L 773.47 198.64 L 775.51 197.67 L 777.69 197.00 L 779.98 196.60 L 782.39 196.47 L 786.01 196.74 L 789.58 197.50 L 792.98 198.72 L 795.98 200.29 L 792.52 200.05 L 789.05 200.26 L 785.54 200.93 L 782.15 202.06 L 779.03 203.61 L 776.14 205.60 L 773.62 208.01 L 771.59 210.83 L 770.03 214.11 L 770.03 214.11 Z" fill="url(#linearGradient-4)" fill-rule="nonzero" group-id="2,9" id="路径" node-id="101" stroke="none" target-height="17.720001" target-width="51.889954" target-x="744.09" target-y="196.39"></path><path d="M 735.24 179.63 L 735.24 179.57 L 734.12 177.04 L 732.73 174.80 L 731.07 172.79 L 729.14 171.02 L 726.25 169.02 L 723.13 167.47 L 719.74 166.35 L 716.23 165.68 L 712.76 165.49 L 709.29 165.75 L 712.31 164.17 L 715.72 162.95 L 719.29 162.18 L 722.91 161.91 L 725.32 162.03 L 727.60 162.43 L 729.78 163.10 L 731.81 164.08 L 733.63 165.37 L 735.24 167.01 L 735.24 167.07 L 736.86 165.45 L 738.67 164.16 L 740.72 163.19 L 742.90 162.53 L 745.18 162.13 L 747.60 161.99 L 751.22 162.26 L 754.79 163.02 L 758.19 164.24 L 761.19 165.82 L 757.73 165.57 L 754.26 165.78 L 750.75 166.45 L 747.36 167.58 L 744.23 169.13 L 741.35 171.12 L 738.83 173.53 L 736.80 176.35 L 735.24 179.63 L 735.24 179.63 Z" fill="url(#linearGradient-4)" fill-rule="nonzero" group-id="2,9" id="路径" node-id="102" stroke="none" target-height="17.720001" target-width="51.900024" target-x="709.29" target-y="161.91"></path><path d="M 840.72 220.07 L 840.72 220.03 L 839.64 217.74 L 838.24 215.78 L 836.49 214.10 L 834.49 212.72 L 832.33 211.64 L 829.98 210.86 L 827.54 210.40 L 825.13 210.27 L 822.74 210.45 L 825.58 209.05 L 828.83 208.11 L 831.09 207.81 L 833.28 207.83 L 835.42 208.14 L 837.44 208.81 L 839.19 209.87 L 840.72 211.32 L 840.72 211.36 L 842.25 209.92 L 844.01 208.88 L 846.04 208.21 L 848.18 207.89 L 850.37 207.87 L 852.64 208.17 L 855.89 209.09 L 858.71 210.49 L 856.31 210.32 L 853.91 210.47 L 851.47 210.93 L 849.12 211.71 L 846.95 212.79 L 844.95 214.17 L 843.21 215.84 L 841.80 217.80 L 840.72 220.07 Z" fill="url(#linearGradient-5)" fill-rule="nonzero" group-id="2,9" id="路径" node-id="103" stroke="none" target-height="12.26001" target-width="35.97003" target-x="822.74" target-y="207.81"></path><path d="M 54.17 676.40 L 46.31 673.15 L 39.62 670.96 L 33.98 669.65 L 29.22 669.06 L 25.22 669.09 L 21.85 669.63 L 19.01 670.62 L 16.61 672.02 L 14.57 673.84 L 12.87 676.12 L 11.49 678.95 L 10.46 682.41 L 9.83 686.65 L 9.69 691.81 L 10.13 698.04 L 11.38 702.83 L 12.85 706.65 L 14.50 709.65 L 16.30 711.97 L 18.25 713.71 L 20.37 714.95 L 26.36 722.62 L 31.07 729.37 L 34.66 735.30 L 37.29 740.50 L 39.10 745.06 L 40.22 749.05 L 40.74 752.57 L 41.38 756.82 L 42.65 761.06 L 43.86 763.77 L 45.39 766.32 L 47.25 768.71 L 49.40 770.83 L 51.92 772.66 L 54.86 774.21 L 57.99 775.32 L 61.61 776.02 L 65.81 776.27 L 70.00 776.00 L 74.83 775.14 L 80.40 773.58 L 84.89 772.39 L 88.96 771.89 L 92.70 772.01 L 96.17 772.70 L 99.42 773.96 L 102.51 775.81 L 105.46 778.30 L 108.29 781.52 L 111.01 785.58 L 113.59 790.62 L 116.01 796.79 L 118.24 804.26 L 122.58 809.52 L 127.33 814.33 L 132.49 818.70 L 138.10 822.66 L 144.17 826.21 L 150.76 829.34 L 157.88 832.05 L 165.60 834.33 L 173.97 836.14 L 183.02 837.47 L 192.83 838.28 L 203.45 838.53 L 214.94 838.17 L 227.37 837.15 L 236.45 835.90 L 243.77 834.35 L 249.57 832.57 L 254.09 830.61 L 257.56 828.53 L 260.15 826.35 L 262.01 824.07 L 263.25 821.66 L 263.92 819.07 L 264.04 816.24 L 263.54 813.09 L 262.33 809.52 L 260.26 805.46 L 257.15 800.79 L 252.78 795.44 L 246.90 789.30 L 239.25 782.28 L 229.54 774.27 L 217.44 765.15 L 204.81 760.39 L 194.77 757.02 L 186.92 754.79 L 180.90 753.48 L 178.55 752.82 L 176.46 751.73 L 174.61 750.18 L 172.95 748.13 L 171.50 745.46 L 170.27 742.07 L 169.32 737.80 L 168.72 732.49 L 168.54 725.97 L 168.30 722.74 L 167.56 719.75 L 166.34 716.95 L 164.60 714.29 L 162.30 711.76 L 159.36 709.34 L 155.68 707.04 L 151.15 704.87 L 145.62 702.86 L 140.07 700.80 L 135.70 698.61 L 132.32 696.31 L 129.77 693.92 L 127.92 691.44 L 126.69 688.83 L 126.02 686.05 L 125.92 683.03 L 126.42 679.72 L 123.31 675.61 L 120.24 672.42 L 117.22 670.03 L 114.21 668.32 L 111.18 667.22 L 108.10 666.69 L 104.92 666.72 L 101.58 667.32 L 98.02 668.56 L 94.21 670.52 L 90.08 673.31 L 85.35 676.59 L 81.00 679.01 L 76.97 680.69 L 73.23 681.71 L 69.73 682.15 L 66.41 682.06 L 63.24 681.45 L 60.16 680.33 L 57.15 678.67 L 54.17 676.40 Z" fill="url(#linearGradient-6)" fill-rule="nonzero" group-id="2,10,19" id="路径-61" node-id="105" stroke="none" target-height="171.84003" target-width="254.35" target-x="9.69" target-y="666.69"></path><path d="M 52.64 691.51 L 100.91 723.73 L 98.81 713.79 L 96.63 705.35 L 94.38 698.25 L 92.09 692.33 L 91.09 689.81 L 91.12 689.73 L 92.59 692.66 L 95.51 699.39 L 98.87 708.18 L 100.42 712.86 L 101.67 717.31 L 102.56 721.63 L 102.89 725.05 L 143.13 751.91 L 143.02 751.75 L 143.55 740.36 L 143.57 731.42 L 143.20 724.53 L 142.54 719.35 L 141.68 715.55 L 142.40 717.00 L 143.28 720.05 L 144.00 723.56 L 144.70 728.00 L 145.71 737.49 L 146.00 742.32 L 146.10 746.65 L 145.98 750.71 L 145.64 753.59 L 182.66 778.29 L 182.32 777.88 L 182.59 775.54 L 183.06 769.84 L 183.22 762.80 L 183.00 759.30 L 182.54 756.41 L 183.07 757.51 L 183.67 760.01 L 184.50 766.44 L 184.92 773.69 L 184.84 779.75 L 215.39 800.14 L 211.52 804.01 L 179.98 781.68 L 177.03 783.20 L 173.95 784.44 L 170.75 785.40 L 165.90 786.41 L 161.44 786.93 L 157.21 787.09 L 154.12 786.94 L 160.72 786.08 L 166.15 784.88 L 170.59 783.39 L 174.16 781.67 L 177.02 779.75 L 178.31 780.68 L 179.52 781.35 L 90.70 718.45 L 91.26 719.14 L 84.51 719.87 L 78.13 720.12 L 72.10 719.91 L 66.39 719.27 L 60.97 718.21 L 55.82 716.76 L 56.13 716.55 L 56.97 716.48 L 58.76 716.74 L 65.80 718.00 L 70.42 718.54 L 76.13 718.75 L 80.03 718.60 L 84.29 718.10 L 88.93 717.21 L 52.64 691.51 Z M 93.97 768.36 L 97.97 768.19 L 102.46 767.40 L 107.51 765.89 L 113.21 763.55 L 119.65 760.24 L 126.93 755.82 L 135.14 750.09 L 137.36 752.31 L 131.86 756.32 L 126.51 759.68 L 121.29 762.42 L 115.88 764.77 L 110.87 766.51 L 106.24 767.69 L 101.50 768.43 L 97.44 768.63 L 93.97 768.36 Z" fill="url(#linearGradient-7)" fill-rule="nonzero" group-id="2,10,20" id="形状结合" node-id="106" stroke="none" target-height="114.28003" target-width="162.75" target-x="52.64" target-y="689.73"></path><path d="M 89.57 607.28 L 82.12 602.51 L 75.77 599.03 L 70.37 596.62 L 65.80 595.11 L 61.93 594.33 L 58.65 594.17 L 55.86 594.51 L 53.45 595.31 L 51.37 596.55 L 49.55 598.24 L 47.96 600.45 L 46.63 603.29 L 45.57 606.88 L 44.85 611.37 L 44.56 616.95 L 44.79 623.79 L 47.76 635.24 L 50.12 645.00 L 52.02 654.32 L 53.15 662.44 L 53.51 667.75 L 53.45 672.78 L 53.01 677.56 L 52.72 680.49 L 52.68 683.80 L 52.93 687.54 L 53.48 691.23 L 54.40 695.11 L 55.71 699.21 L 57.38 703.18 L 59.52 707.16 L 62.18 711.19 L 65.22 714.94 L 68.87 718.57 L 73.19 722.09 L 76.61 724.41 L 80.45 726.59 L 84.76 728.63 L 89.57 730.51 L 95.67 732.89 L 100.51 735.31 L 104.28 737.72 L 107.14 740.14 L 109.24 742.55 L 110.71 744.98 L 111.60 747.45 L 111.98 750.01 L 111.84 752.72 L 111.13 755.63 L 109.79 758.80 L 107.69 762.30 L 107.18 765.73 L 107.24 768.99 L 107.83 772.13 L 108.96 775.18 L 110.68 778.19 L 113.05 781.20 L 116.17 784.21 L 120.16 787.24 L 125.15 790.27 L 131.31 793.31 L 138.79 796.33 L 147.79 799.31 L 158.50 802.22 L 171.14 805.02 L 185.91 807.68 L 198.13 809.43 L 208.17 810.47 L 216.32 810.92 L 222.64 810.93 L 227.87 810.64 L 232.15 810.10 L 235.60 809.36 L 239.17 808.18 L 241.93 806.84 L 244.03 805.35 L 245.59 803.73 L 246.82 801.79 L 247.65 799.68 L 248.08 797.36 L 248.10 794.78 L 247.61 791.36 L 246.59 787.54 L 244.95 783.26 L 241.91 776.93 L 237.97 769.93 L 228.97 755.52 L 223.45 749.62 L 219.47 744.63 L 217.17 741.24 L 215.38 738.13 L 214.02 735.26 L 212.47 730.83 L 211.56 726.58 L 211.10 722.28 L 210.98 717.80 L 211.18 714.69 L 211.68 711.18 L 212.75 703.81 L 212.93 700.01 L 212.61 696.23 L 212.05 693.77 L 211.08 691.36 L 209.69 688.97 L 207.95 686.82 L 205.56 684.69 L 202.42 682.57 L 199.04 680.84 L 194.70 679.16 L 189.22 677.56 L 185.70 676.49 L 182.51 674.97 L 179.61 673.00 L 176.97 670.54 L 174.56 667.55 L 172.40 663.95 L 170.49 659.68 L 168.87 654.61 L 167.57 648.66 L 166.65 641.69 L 166.16 633.59 L 165.36 630.57 L 164.13 628.02 L 162.48 625.88 L 160.39 624.08 L 157.78 622.61 L 154.55 621.49 L 150.58 620.77 L 145.73 620.53 L 139.84 620.86 L 132.72 621.90 L 124.19 623.79 L 120.64 624.23 L 117.08 624.17 L 113.50 623.61 L 109.84 622.52 L 106.09 620.87 L 102.21 618.61 L 98.18 615.64 L 93.97 611.90 L 89.57 607.28 Z" fill="url(#linearGradient-8)" fill-rule="nonzero" group-id="2,10" id="路径-65" node-id="107" stroke="none" target-height="216.76001" target-width="203.54001" target-x="44.56" target-y="594.17"></path><path d="M 74.94 624.74 L 110.38 669.80 L 110.45 669.63 L 112.15 664.88 L 113.30 660.18 L 113.94 655.50 L 114.07 650.82 L 113.69 646.11 L 112.80 641.35 L 112.72 641.04 L 112.73 641.08 L 114.67 646.87 L 115.51 650.05 L 116.08 653.65 L 116.20 657.44 L 115.67 661.87 L 114.96 664.84 L 113.80 668.21 L 112.12 672.01 L 142.15 710.19 L 142.34 709.92 L 144.95 705.70 L 147.13 701.02 L 148.89 695.81 L 150.20 690.03 L 151.02 683.61 L 151.30 676.46 L 151.71 678.46 L 151.97 682.22 L 151.91 686.42 L 151.45 691.61 L 150.55 696.95 L 149.07 702.49 L 147.74 706.11 L 146.10 709.52 L 144.14 712.73 L 170.75 746.55 L 173.02 742.51 L 174.29 739.67 L 175.48 736.17 L 176.31 732.45 L 176.63 728.40 L 176.98 731.31 L 177.09 734.61 L 176.84 738.01 L 176.10 741.66 L 175.31 744.05 L 174.20 746.52 L 172.74 749.08 L 212.00 799.00 L 205.77 799.00 L 167.82 748.45 L 163.16 750.26 L 159.08 751.56 L 155.50 752.43 L 150.20 753.24 L 145.94 753.38 L 141.97 753.05 L 138.86 752.43 L 136.06 751.55 L 134.01 750.70 L 138.18 751.48 L 142.43 751.78 L 146.77 751.61 L 151.25 750.94 L 155.88 749.76 L 160.70 748.01 L 165.73 745.66 L 136.86 707.22 L 137.36 708.13 L 130.09 710.39 L 123.00 712.07 L 115.94 713.23 L 109.43 713.82 L 103.13 713.88 L 97.74 713.41 L 94.27 712.76 L 91.39 711.90 L 89.00 710.87 L 92.28 711.85 L 96.10 712.49 L 100.56 712.73 L 105.76 712.51 L 111.78 711.76 L 118.75 710.37 L 126.77 708.26 L 135.98 705.31 L 135.55 705.46 L 103.38 662.62 L 103.56 663.14 L 98.17 663.21 L 93.20 662.74 L 88.59 661.78 L 84.31 660.34 L 80.30 658.43 L 76.55 656.02 L 73.03 653.11 L 69.72 649.65 L 70.21 649.61 L 71.49 650.37 L 75.34 653.19 L 78.00 654.89 L 81.52 656.74 L 85.43 658.33 L 90.28 659.67 L 93.67 660.26 L 97.51 660.58 L 101.86 660.61 L 74.94 624.74 Z" fill="url(#linearGradient-9)" fill-rule="nonzero" group-id="2,10,21" id="形状结合" node-id="108" stroke="none" target-height="174.26001" target-width="142.28" target-x="69.72" target-y="624.74"></path><path d="M 199.20 608.75 L 202.76 604.29 L 205.99 601.10 L 208.92 598.96 L 211.62 597.66 L 214.16 597.07 L 216.59 597.08 L 219.00 597.70 L 221.46 598.99 L 224.02 601.05 L 226.71 604.09 L 229.55 608.32 L 232.55 614.01 L 233.68 619.31 L 234.29 624.01 L 235.21 632.61 L 235.70 635.21 L 236.44 637.65 L 237.45 639.95 L 238.77 642.06 L 240.63 644.14 L 243.12 646.20 L 245.87 647.92 L 249.56 649.70 L 254.37 651.51 L 258.45 653.12 L 261.68 654.90 L 264.19 656.83 L 266.10 658.90 L 267.48 661.13 L 268.38 663.55 L 268.82 666.22 L 268.75 669.19 L 268.13 672.54 L 266.85 676.35 L 264.79 680.69 L 261.81 685.66 L 260.43 689.47 L 259.82 692.72 L 259.83 695.50 L 260.38 697.91 L 261.45 700.06 L 263.07 701.98 L 265.34 703.72 L 268.38 705.26 L 272.39 706.57 L 275.08 707.52 L 277.09 708.76 L 278.58 710.27 L 279.60 712.08 L 280.18 714.27 L 280.28 716.94 L 279.77 720.24 L 278.52 724.30 L 276.32 729.29 L 272.94 735.39 L 268.12 742.79 L 265.93 748.48 L 264.73 753.10 L 264.31 756.84 L 264.52 759.86 L 265.25 762.32 L 266.44 764.33 L 268.12 765.99 L 270.46 767.98 L 273.22 770.93 L 274.92 773.15 L 276.55 775.79 L 278.11 778.91 L 279.33 782.15 L 280.26 785.88 L 280.87 790.15 L 281.00 794.45 L 280.60 799.34 L 279.59 804.90 L 278.06 810.31 L 275.71 816.44 L 272.39 823.38 L 270.25 826.95 L 268.03 829.95 L 265.73 832.44 L 263.35 834.47 L 259.79 836.76 L 256.15 838.39 L 252.38 839.40 L 248.48 839.88 L 244.54 839.88 L 240.53 839.40 L 236.57 838.52 L 232.69 837.29 L 228.86 835.72 L 223.40 832.87 L 218.44 829.59 L 213.95 825.93 L 210.32 822.27 L 208.21 819.63 L 206.65 817.21 L 205.56 814.98 L 204.55 811.71 L 203.94 808.32 L 203.73 804.78 L 203.96 799.43 L 204.65 793.97 L 206.48 783.35 L 207.18 778.26 L 207.40 773.74 L 207.18 770.83 L 206.56 768.26 L 205.56 765.99 L 204.30 764.32 L 202.54 762.64 L 200.18 760.95 L 196.34 758.62 L 191.83 756.10 L 187.25 753.44 L 182.68 750.43 L 179.81 748.18 L 177.21 745.69 L 174.89 742.94 L 172.98 739.92 L 171.55 736.51 L 170.61 732.62 L 170.33 729.69 L 170.44 726.40 L 170.98 722.68 L 172.01 718.47 L 174.60 714.63 L 177.14 711.33 L 179.63 708.15 L 181.78 705.12 L 183.01 703.02 L 183.98 700.81 L 184.68 698.45 L 185.05 696.03 L 185.03 693.23 L 184.58 689.97 L 183.76 686.79 L 182.34 682.94 L 180.22 678.31 L 177.38 672.97 L 175.21 669.25 L 171.88 663.77 L 170.88 661.72 L 170.47 660.09 L 170.55 658.44 L 171.23 656.43 L 172.38 654.25 L 174.39 651.03 L 180.22 642.12 L 183.51 638.32 L 187.04 633.31 L 190.83 626.88 L 194.88 618.79 L 199.20 608.75 Z" fill="url(#linearGradient-10)" fill-rule="nonzero" group-id="2,10" id="路径-96" node-id="109" stroke="none" target-height="242.81" target-width="110.67" target-x="170.33" target-y="597.07"></path><path d="M 216.11 638.51 L 227.46 695.42 L 233.00 686.91 L 237.42 679.40 L 240.85 672.79 L 243.42 666.99 L 244.50 664.50 L 244.57 664.46 L 243.54 667.58 L 240.85 674.40 L 237.01 682.99 L 234.79 687.39 L 232.53 691.42 L 230.11 695.11 L 227.92 697.76 L 237.38 745.21 L 237.42 745.02 L 245.84 737.34 L 252.18 731.03 L 256.79 725.90 L 259.99 721.76 L 262.07 718.47 L 261.54 720.00 L 260.01 722.78 L 258.04 725.77 L 255.40 729.40 L 249.40 736.83 L 246.20 740.45 L 243.20 743.59 L 240.24 746.37 L 237.97 748.17 L 246.68 791.81 L 246.73 791.28 L 248.58 789.82 L 252.94 786.12 L 258.03 781.25 L 260.35 778.62 L 262.07 776.25 L 261.66 777.41 L 260.32 779.60 L 256.36 784.74 L 251.53 790.16 L 247.19 794.39 L 254.37 830.40 L 248.90 830.40 L 242.39 792.31 L 239.23 791.30 L 236.18 790.00 L 233.23 788.41 L 229.08 785.70 L 225.57 782.92 L 222.47 780.04 L 220.38 777.75 L 225.65 781.81 L 230.35 784.80 L 234.53 786.88 L 238.28 788.20 L 241.66 788.86 L 241.92 790.42 L 242.29 791.75 L 223.96 684.47 L 223.87 685.35 L 218.58 681.10 L 213.90 676.76 L 209.79 672.35 L 206.20 667.86 L 203.11 663.29 L 200.50 658.61 L 200.87 658.69 L 201.50 659.23 L 202.59 660.68 L 206.68 666.55 L 209.57 670.20 L 213.45 674.38 L 216.32 677.04 L 219.68 679.69 L 223.60 682.34 L 216.11 638.51 Z M 190.99 722.08 L 193.94 724.79 L 197.67 727.40 L 202.31 729.90 L 207.99 732.28 L 214.89 734.50 L 223.17 736.51 L 233.02 738.27 L 233.02 741.41 L 226.29 740.36 L 220.14 738.94 L 214.51 737.20 L 209.01 735.03 L 204.25 732.72 L 200.14 730.27 L 196.26 727.45 L 193.25 724.72 L 190.99 722.08 Z" fill="url(#linearGradient-7)" fill-rule="nonzero" group-id="2,10" id="形状结合" node-id="110" stroke="none" target-height="191.89001" target-width="71.08" target-x="190.99" target-y="638.51"></path><path d="M 938.40 787.52 L 938.95 781.38 L 938.93 776.07 L 938.44 771.49 L 937.51 767.55 L 936.21 764.15 L 934.55 761.23 L 932.54 758.73 L 930.16 756.60 L 927.38 754.81 L 924.14 753.38 L 920.38 752.30 L 916.00 751.63 L 920.95 751.41 L 925.50 751.63 L 929.69 752.27 L 933.56 753.29 L 937.14 754.69 L 940.61 756.53 L 943.72 758.70 L 946.51 761.19 L 948.98 764.04 L 951.16 767.26 L 952.93 770.65 L 954.34 774.33 L 955.40 778.35 L 956.09 782.73 L 956.38 787.52 L 948.50 787.65 L 938.40 787.52 Z" fill="url(#linearGradient-11)" fill-rule="nonzero" group-id="2,11" id="路径-38" node-id="112" stroke="none" target-height="36.24005" target-width="40.380005" target-x="916" target-y="751.41"></path><path d="M 950.12 787.65 L 951.21 781.17 L 951.68 775.22 L 951.58 769.76 L 950.96 764.72 L 949.84 760.06 L 948.24 755.73 L 946.18 751.69 L 943.62 747.92 L 940.56 744.39 L 936.95 741.08 L 932.73 738.00 L 937.89 739.74 L 942.70 741.69 L 947.18 743.86 L 951.44 746.39 L 955.38 749.38 L 959.04 752.83 L 961.47 755.66 L 963.76 758.90 L 965.90 762.60 L 967.90 766.80 L 969.51 771.00 L 970.97 775.83 L 972.27 781.35 L 973.37 787.65 L 967.00 787.95 L 959.31 787.97 L 950.12 787.65 Z" fill="url(#linearGradient-12)" fill-rule="nonzero" group-id="2,11" id="路径-39" node-id="113" stroke="none" target-height="49.96997" target-width="40.640015" target-x="932.73" target-y="738"></path><path d="M 977.07 788.00 L 976.73 781.72 L 976.99 776.27 L 977.76 771.55 L 978.98 767.46 L 980.63 763.91 L 982.67 760.84 L 985.13 758.18 L 988.03 755.92 L 991.43 754.02 L 995.39 752.50 L 1000.00 751.39 L 995.13 751.29 L 990.16 751.39 L 986.86 751.67 L 983.55 752.24 L 980.22 753.13 L 977.02 754.38 L 973.78 756.16 L 970.49 758.54 L 967.52 761.30 L 964.47 764.91 L 961.33 769.53 L 958.63 774.39 L 955.86 780.48 L 953.05 788.00 L 968.31 787.74 L 977.07 788.00 Z" fill="none" group-id="2,11" id="路径-40" node-id="114" stroke="none" target-height="36.710022" target-width="46.950012" target-x="953.05" target-y="751.29"></path><path d="M 927.41 802.00 L 933.64 801.98 L 939.14 801.82 L 942.72 801.51 L 945.83 800.97 L 948.52 800.23 L 951.03 799.11 L 953.09 797.60 L 954.75 795.68 L 955.66 794.05 L 956.36 792.05 L 956.82 789.60 L 957.00 786.61 L 956.71 782.68 L 955.91 778.99 L 954.60 775.47 L 952.83 772.16 L 950.66 769.14 L 948.07 766.38 L 945.15 763.97 L 941.92 761.92 L 938.37 760.25 L 934.64 759.03 L 930.70 758.27 L 926.50 758.00 L 922.30 758.27 L 918.36 759.03 L 914.63 760.25 L 911.08 761.92 L 907.85 763.97 L 904.93 766.38 L 902.34 769.14 L 900.17 772.16 L 898.40 775.47 L 897.09 778.99 L 896.29 782.68 L 896.00 786.61 L 896.20 789.58 L 896.72 792.02 L 897.51 794.03 L 898.54 795.68 L 900.37 797.58 L 902.63 799.10 L 905.39 800.23 L 908.32 800.98 L 911.64 801.51 L 915.40 801.82 L 921.13 801.98 L 927.41 802.00 Z" fill="url(#linearGradient-14)" fill-rule="nonzero" group-id="2,11" id="椭圆形" node-id="115" stroke="none" target-height="44" target-width="61" target-x="896" target-y="758"></path><path d="M 960.57 802.00 L 967.88 801.89 L 971.11 801.55 L 973.72 800.91 L 975.28 800.22 L 976.56 799.30 L 977.60 798.12 L 978.32 796.74 L 978.81 794.92 L 979.00 792.56 L 978.68 789.36 L 977.82 786.43 L 976.41 783.69 L 974.53 781.25 L 972.27 779.15 L 969.59 777.40 L 966.66 776.10 L 963.48 775.30 L 960.00 775.00 L 956.52 775.30 L 953.34 776.10 L 950.41 777.40 L 947.73 779.15 L 945.47 781.25 L 943.59 783.69 L 942.18 786.43 L 941.32 789.36 L 941.00 792.56 L 941.21 794.91 L 941.76 796.73 L 942.58 798.12 L 943.72 799.29 L 945.13 800.22 L 946.85 800.91 L 949.68 801.55 L 953.08 801.89 L 960.57 802.00 Z" fill="url(#linearGradient-15)" fill-rule="nonzero" group-id="2,11" id="椭圆形备份-6" node-id="116" stroke="none" target-height="27" target-width="38" target-x="941" target-y="775"></path></g><g node-id="369"><path d="M 411.02 379.00 L 431.81 379.00 L 433.30 379.21 L 434.58 379.75 L 435.70 380.61 L 436.56 381.73 L 437.10 383.01 L 437.31 384.50 L 437.31 744.33 L 437.10 745.83 L 436.56 747.11 L 435.70 748.22 L 434.58 749.09 L 433.30 749.62 L 431.81 749.83 L 411.02 749.83 L 409.53 749.62 L 408.25 749.09 L 407.14 748.22 L 406.27 747.11 L 405.74 745.83 L 405.52 744.33 L 405.52 384.50 L 405.74 383.01 L 406.27 381.73 L 407.14 380.61 L 408.25 379.75 L 409.53 379.21 L 411.02 379.00 Z" fill="url(#linearGradient-16)" fill-rule="nonzero" group-id="3" id="矩形" node-id="118" stroke="none" target-height="370.83002" target-width="31.790009" target-x="405.52" target-y="379"></path><path d="M 241.77 408.47 L 590.75 437.19 L 636.00 513.59 L 584.99 583.30 L 236.00 554.58 L 236.69 484.88 Z" fill="url(#linearGradient-17)" fill-rule="nonzero" group-id="3" id="矩形" node-id="119" stroke="none" target-height="174.82999" target-width="400" target-x="236" target-y="408.47"></path><g node-id="378"><path d="M 353.95 527.81 L 355.08 511.58 L 319.99 509.13 L 320.75 498.19 L 349.43 500.19 L 350.57 483.96 L 321.89 481.96 L 322.57 472.15 L 356.54 474.52 L 357.67 458.30 L 300.69 454.31 L 295.83 523.75 L 353.95 527.81 Z M 383.38 529.87 L 384.60 512.51 L 385.02 508.54 L 385.85 505.43 L 387.00 503.02 L 388.43 501.16 L 390.16 499.78 L 392.23 498.83 L 394.72 498.30 L 397.73 498.26 L 398.54 498.47 L 399.94 499.17 L 399.94 499.17 L 401.82 499.31 L 403.22 479.30 L 403.22 479.30 L 402.09 479.23 L 400.61 478.74 L 397.44 478.77 L 394.65 479.29 L 392.14 480.27 L 389.88 481.71 L 387.83 483.65 L 385.98 486.17 L 384.32 489.36 L 384.32 489.36 L 385.03 479.17 L 366.54 477.88 L 363.00 528.44 L 383.38 529.87 Z M 426.02 532.85 L 427.24 515.49 L 427.67 511.53 L 428.49 508.41 L 429.64 506.00 L 431.07 504.14 L 432.80 502.76 L 434.87 501.81 L 437.36 501.28 L 440.37 501.24 L 441.18 501.45 L 442.58 502.15 L 442.58 502.15 L 444.47 502.29 L 445.87 482.29 L 445.87 482.29 L 444.73 482.21 L 443.25 481.72 L 440.09 481.75 L 437.29 482.27 L 434.79 483.25 L 432.53 484.69 L 430.48 486.64 L 428.62 489.15 L 426.96 492.34 L 426.96 492.34 L 427.67 482.15 L 409.18 480.86 L 405.65 531.43 L 426.02 532.85 Z M 475.41 537.06 L 480.86 537.04 L 485.57 536.50 L 489.64 535.53 L 493.16 534.15 L 496.20 532.40 L 498.81 530.27 L 501.05 527.75 L 502.92 524.80 L 504.44 521.36 L 505.58 517.34 L 506.31 512.68 L 506.10 508.11 L 505.43 504.08 L 504.33 500.52 L 502.84 497.37 L 500.94 494.57 L 498.63 492.09 L 495.88 489.90 L 492.62 488.00 L 488.79 486.41 L 484.32 485.14 L 479.10 484.23 L 473.76 484.33 L 469.13 484.93 L 465.12 485.97 L 461.64 487.40 L 458.63 489.21 L 456.03 491.40 L 453.80 493.98 L 451.92 497.01 L 450.40 500.53 L 449.25 504.63 L 448.52 509.40 L 448.60 513.96 L 449.16 517.96 L 450.17 521.47 L 451.60 524.56 L 453.43 527.29 L 455.69 529.70 L 458.41 531.81 L 461.66 533.62 L 465.52 535.12 L 470.06 536.29 L 475.41 537.06 Z M 476.71 524.27 L 476.30 524.23 L 474.11 523.73 L 472.35 522.82 L 470.92 521.50 L 469.79 519.69 L 468.98 517.29 L 468.53 514.14 L 468.57 510.04 L 469.18 506.42 L 470.09 503.63 L 471.26 501.51 L 472.67 499.93 L 474.31 498.82 L 476.24 498.12 L 478.53 497.84 L 480.40 498.29 L 481.96 499.12 L 483.26 500.35 L 484.35 502.05 L 485.20 504.33 L 485.75 507.34 L 485.93 511.25 L 485.37 515.61 L 484.46 518.81 L 483.30 521.10 L 481.94 522.68 L 480.36 523.70 L 478.51 524.22 L 476.30 524.23 L 476.71 524.27 Z M 532.82 540.32 L 534.03 522.96 L 534.46 518.99 L 535.29 515.88 L 536.43 513.46 L 537.87 511.61 L 539.60 510.23 L 541.67 509.28 L 544.15 508.75 L 547.16 508.71 L 547.98 508.92 L 549.38 509.62 L 549.38 509.62 L 551.26 509.75 L 552.66 489.75 L 552.66 489.75 L 551.53 489.68 L 550.05 489.19 L 546.88 489.22 L 544.08 489.74 L 541.58 490.72 L 539.32 492.16 L 537.27 494.10 L 535.41 496.62 L 533.76 499.81 L 533.76 499.81 L 534.47 489.62 L 515.98 488.33 L 512.44 538.89 L 532.82 540.32 Z" fill="#ffffff" fill-rule="nonzero" group-id="3,12" node-id="365" stroke="none" target-height="86.01001" target-width="256.83" target-x="295.83" target-y="454.31"></path></g></g><g node-id="370"><path d="M 452.83 751.35 L 451.46 746.51 L 449.59 742.12 L 447.24 738.13 L 444.38 734.51 L 440.99 731.22 L 437.02 728.26 L 432.42 725.62 L 427.10 723.31 L 421.19 721.24 L 416.48 719.25 L 412.33 717.03 L 409.71 715.07 L 408.41 713.57 L 407.86 712.26 L 407.89 711.03 L 408.44 709.91 L 409.73 708.71 L 412.12 707.38 L 417.15 706.78 L 420.09 706.57 L 423.42 706.65 L 426.81 707.19 L 430.51 708.43 L 432.88 709.63 L 435.38 711.33 L 438.04 713.60 L 440.43 716.14 L 442.95 719.43 L 445.61 723.62 L 447.93 727.97 L 450.34 733.36 L 452.83 739.93 L 453.48 743.81 L 453.47 747.60 L 452.83 751.35 Z" fill="url(#linearGradient-18)" fill-rule="nonzero" group-id="4" id="路径-43" node-id="122" stroke="none" target-height="44.77997" target-width="45.620026" target-x="407.86" target-y="706.57"></path><path d="M 453.56 753.47 L 449.29 738.59 L 445.04 725.61 L 440.81 714.37 L 436.62 704.69 L 432.48 696.43 L 428.41 689.42 L 424.41 683.54 L 422.57 680.91 L 421.10 678.21 L 419.99 675.45 L 419.19 672.57 L 418.75 669.82 L 418.63 667.17 L 418.83 664.54 L 419.35 662.22 L 420.15 660.17 L 421.30 658.33 L 422.71 656.92 L 424.41 655.89 L 426.38 655.71 L 428.70 655.69 L 431.09 656.04 L 433.78 657.00 L 435.49 657.95 L 437.35 659.38 L 439.39 661.38 L 441.18 663.58 L 443.13 666.54 L 445.24 670.41 L 447.06 674.40 L 449.00 679.43 L 451.06 685.68 L 453.75 695.64 L 456.58 708.76 L 457.25 713.02 L 458.13 720.44 L 458.47 724.85 L 458.66 729.74 L 458.64 734.70 L 458.33 739.67 L 457.65 744.53 L 456.58 748.97 L 455.78 750.84 L 454.77 752.32 L 453.56 753.47 Z" fill="url(#linearGradient-19)" fill-rule="nonzero" group-id="4" id="路径-44" node-id="123" stroke="none" target-height="97.77997" target-width="40.03" target-x="418.63" target-y="655.69"></path><path d="M 455.53 746.26 L 456.81 740.52 L 457.67 734.16 L 458.08 727.09 L 457.98 719.25 L 457.32 710.57 L 456.04 700.96 L 454.06 690.34 L 449.30 676.61 L 447.04 669.66 L 445.26 663.17 L 444.37 658.84 L 443.93 654.99 L 443.89 651.57 L 444.20 649.03 L 444.86 646.85 L 445.85 644.96 L 447.17 643.34 L 448.77 642.07 L 450.86 641.07 L 453.58 640.35 L 457.06 640.00 L 458.91 640.36 L 460.81 641.02 L 462.77 642.03 L 464.54 643.33 L 466.32 645.15 L 468.11 647.58 L 469.56 650.23 L 470.94 653.69 L 472.23 658.12 L 473.13 662.62 L 473.84 668.22 L 474.29 675.11 L 474.39 681.98 L 474.13 690.22 L 473.46 700.01 L 472.37 707.21 L 471.17 713.48 L 469.79 719.49 L 468.32 724.97 L 465.07 735.55 L 461.57 746.26 L 459.88 746.86 L 457.91 746.89 L 455.53 746.26 Z" fill="url(#linearGradient-20)" fill-rule="nonzero" group-id="4" id="路径-45" node-id="124" stroke="none" target-height="106.890015" target-width="30.5" target-x="443.89" target-y="640"></path><path d="M 460.05 751.81 L 459.86 739.55 L 460.23 728.38 L 461.11 718.22 L 462.45 708.99 L 464.22 700.62 L 466.38 693.04 L 468.89 686.18 L 471.75 679.98 L 474.93 674.39 L 478.42 669.36 L 482.23 664.84 L 483.83 663.17 L 486.13 661.55 L 488.74 660.29 L 491.59 659.48 L 493.55 659.24 L 495.42 659.34 L 497.22 659.75 L 498.86 660.53 L 500.31 661.76 L 501.61 663.51 L 502.50 665.52 L 503.11 668.24 L 503.36 671.88 L 501.42 679.50 L 499.80 684.33 L 497.25 690.49 L 494.02 696.95 L 489.35 704.83 L 485.84 710.07 L 481.50 715.94 L 476.24 722.51 L 473.70 726.16 L 471.39 730.07 L 469.35 734.08 L 467.66 737.86 L 466.24 741.54 L 465.26 744.50 L 464.58 747.18 L 464.39 748.62 L 464.12 749.98 L 463.39 750.93 L 462.12 751.56 L 460.05 751.81 Z" fill="url(#linearGradient-21)" fill-rule="nonzero" group-id="4" id="路径-46" node-id="125" stroke="none" target-height="92.57001" target-width="43.5" target-x="459.86" target-y="659.24"></path><path d="M 376.00 757.14 L 387.61 754.78 L 395.03 752.90 L 399.42 751.43 L 401.74 750.31 L 402.76 749.46 L 403.86 748.41 L 406.38 746.61 L 409.39 744.84 L 413.35 742.95 L 417.62 741.37 L 422.33 740.20 L 425.55 739.76 L 428.76 739.71 L 431.99 740.04 L 435.10 740.83 L 438.09 742.19 L 440.99 744.17 L 442.35 742.83 L 444.30 741.59 L 446.55 740.69 L 449.09 740.17 L 451.70 740.16 L 454.33 740.75 L 455.98 741.50 L 457.54 742.63 L 459.05 744.17 L 459.94 741.57 L 461.27 739.15 L 463.05 736.88 L 465.13 734.84 L 467.42 733.03 L 469.92 731.43 L 473.85 729.49 L 477.59 728.21 L 480.14 727.67 L 482.26 727.50 L 484.01 727.61 L 486.55 727.49 L 490.12 727.58 L 493.90 728.06 L 498.10 729.14 L 500.83 730.22 L 503.53 731.71 L 506.22 733.67 L 508.58 735.97 L 510.77 738.89 L 512.76 742.54 L 513.89 745.37 L 514.82 748.70 L 515.54 752.60 L 516.00 757.14 L 494.08 757.24 L 376.00 757.14 Z" fill="url(#linearGradient-22)" fill-rule="nonzero" group-id="4" id="路径-47" node-id="126" stroke="none" target-height="29.75" target-width="140" target-x="376" target-y="727.49"></path></g><g node-id="371"><g node-id="379"><path d="M 792.06 813.39 L 785.43 815.71 L 781.42 817.55 L 779.14 818.97 L 777.81 820.15 L 777.14 821.13 L 776.85 822.22 L 776.97 823.25 L 777.53 824.27 L 778.88 825.65 L 780.91 827.11 L 785.60 829.79 L 789.12 832.00 L 791.46 833.95 L 792.92 835.67 L 793.94 837.64 L 794.33 839.47 L 794.19 841.22 L 793.61 842.95 L 792.67 844.69 L 791.32 846.47 L 788.96 848.97 L 786.21 851.47 L 784.16 852.94 L 780.63 854.80 L 775.07 857.16 L 769.45 859.15 L 762.45 861.28 L 753.84 863.54 L 745.20 865.48 L 735.39 867.32 L 724.31 869.04 L 713.23 870.39 L 701.23 871.42 L 688.28 872.10 L 675.33 872.31 L 661.76 872.00 L 647.51 871.13 L 636.91 870.11 L 626.10 868.68 L 615.07 866.84 L 603.80 864.58 L 591.98 861.69 L 582.04 858.78 L 573.78 855.88 L 565.66 852.47 L 559.12 849.17 L 553.94 845.97 L 550.18 843.17 L 547.12 840.49 L 544.68 837.90 L 542.79 835.40 L 541.13 832.61 L 539.94 829.92 L 539.17 827.31 L 538.79 824.76 L 538.80 821.28 L 539.34 817.91 L 540.43 814.61 L 541.96 811.46 L 543.88 808.43 L 546.19 805.52 L 548.77 802.83 L 551.56 800.35 L 554.56 798.08 L 557.57 796.15 L 561.87 793.82 L 567.76 791.00 L 577.14 787.09 L 589.30 782.72 L 597.79 780.02 L 607.28 777.30 L 617.85 774.59 L 628.45 772.19 L 639.86 769.98 L 652.12 767.96 L 664.40 766.33 L 677.28 765.06 L 690.79 764.17 L 704.31 763.77 L 718.23 763.90 L 732.56 764.58 L 745.46 765.63 L 756.52 766.82 L 765.94 768.12 L 775.32 769.73 L 783.06 771.35 L 789.35 772.96 L 795.58 774.91 L 800.34 776.73 L 803.89 778.42 L 807.27 780.49 L 809.41 782.27 L 810.65 783.81 L 812.35 786.71 L 813.62 789.44 L 814.50 792.03 L 814.93 794.67 L 814.77 797.21 L 814.02 799.70 L 813.11 801.39 L 811.74 803.13 L 809.81 804.94 L 807.22 806.83 L 803.60 808.88 L 798.64 811.07 L 792.06 813.39 Z" fill="url(#linearGradient-23)" fill-opacity="0.4" fill-rule="nonzero" group-id="5,13" id="路径" node-id="128" stroke="none" target-height="108.53998" target-width="276.14" target-x="538.79" target-y="763.77"></path></g><g node-id="380"><path d="M 674.63 633.28 L 678.27 631.22 L 681.76 628.59 L 684.90 625.57 L 687.43 622.44 L 688.84 620.19 L 689.79 618.14 L 690.35 616.25 L 690.75 614.58 L 691.65 611.83 L 692.83 608.85 L 694.53 605.31 L 696.56 601.78 L 699.09 598.20 L 702.04 594.89 L 705.47 591.99 L 708.00 590.39 L 710.76 589.13 L 713.78 588.21 L 716.89 587.74 L 720.32 587.77 L 724.13 588.35 L 728.57 589.70 L 732.36 591.46 L 735.58 593.61 L 738.43 596.23 L 740.74 599.11 L 742.55 602.27 L 743.86 605.67 L 744.68 609.21 L 745.00 612.93 L 744.81 616.66 L 744.12 620.42 L 742.90 624.22 L 741.22 627.83 L 739.01 631.34 L 736.23 634.75 L 729.01 642.49 L 723.34 648.32 L 719.59 651.89 L 716.53 654.43 L 714.06 656.14 L 712.03 657.17 L 710.34 657.63 L 708.90 657.65 L 707.63 657.28 L 705.84 656.73 L 704.06 656.62 L 702.25 656.95 L 699.61 658.01 L 697.08 659.55 L 694.73 661.34 L 692.82 662.99 L 692.21 663.25 L 691.42 663.14 L 690.35 662.50 L 688.80 661.09 L 686.90 658.86 L 683.11 653.51 L 679.61 647.90 L 677.05 643.47 L 676.06 641.67 L 672.25 636.95 L 674.63 633.28 Z" fill="#ebb0b0" fill-rule="nonzero" group-id="5,14" id="路径" node-id="129" stroke="none" target-height="75.51001" target-width="72.75" target-x="672.25" target-y="587.74"></path></g><g node-id="381"><path d="M 757.58 589.87 L 760.67 592.88 L 762.82 595.65 L 764.20 598.23 L 765.11 601.01 L 765.45 603.61 L 765.27 606.09 L 764.66 608.53 L 763.69 610.85 L 762.35 613.07 L 759.88 616.10 L 757.00 618.77 L 753.85 621.05 L 750.79 622.80 L 747.23 624.46 L 744.98 625.29 L 742.97 625.74 L 741.45 625.79 L 738.07 625.29 L 735.97 625.00 L 732.72 624.81 L 732.58 624.60 L 732.33 624.58 L 731.56 624.92 L 730.62 625.59 L 728.80 627.20 L 723.41 632.84 L 719.51 631.75 L 719.18 631.44 L 719.40 630.90 L 720.51 629.31 L 720.89 628.28 L 720.83 627.04 L 720.26 626.23 L 719.10 625.65 L 717.67 625.43 L 715.96 625.59 L 714.30 626.17 L 712.76 627.25 L 711.93 628.21 L 711.28 629.44 L 710.83 631.02 L 710.28 635.28 L 710.34 636.18 L 710.44 636.28 L 710.64 636.15 L 709.36 636.45 L 706.40 636.92 L 704.67 637.02 L 703.04 636.90 L 701.58 636.48 L 700.58 635.72 L 698.10 633.26 L 694.08 629.51 L 689.91 625.13 L 688.14 622.84 L 686.95 620.80 L 686.45 619.39 L 686.35 618.21 L 686.60 617.18 L 687.31 615.18 L 687.89 612.73 L 689.13 607.00 L 690.10 603.78 L 691.63 600.01 L 693.66 596.20 L 696.68 591.77 L 699.18 589.03 L 702.09 586.62 L 705.46 584.55 L 709.05 582.84 L 712.80 581.46 L 716.70 580.40 L 720.69 579.63 L 724.47 579.17 L 728.08 579.01 L 731.71 579.12 L 734.74 579.49 L 737.26 580.07 L 744.21 582.44 L 749.52 584.74 L 752.80 586.51 L 755.46 588.21 L 757.58 589.87 Z" fill="#131322" fill-rule="nonzero" group-id="5,15" id="路径" node-id="130" stroke="none" target-height="58.01001" target-width="79.10004" target-x="686.35" target-y="579.01"></path></g><g node-id="382"><path d="M 798.02 795.77 L 794.87 800.47 L 793.53 802.35 L 792.57 803.94 L 791.94 805.59 L 791.75 807.42 L 792.04 808.93 L 792.85 810.81 L 794.00 812.65 L 795.51 814.52 L 797.22 816.20 L 799.05 817.59 L 801.00 818.60 L 802.82 819.06 L 808.12 819.46 L 813.97 819.78 L 819.23 820.02 L 822.75 820.18 L 826.41 820.27 L 832.67 820.17 L 836.25 819.94 L 839.87 819.55 L 843.39 818.94 L 846.34 818.12 L 848.17 817.35 L 849.50 816.49 L 850.42 815.56 L 851.15 814.15 L 851.43 812.76 L 851.28 811.33 L 850.67 809.82 L 849.39 808.00 L 847.42 806.17 L 844.62 804.30 L 841.59 802.81 L 837.99 801.50 L 833.73 800.41 L 823.38 798.57 L 813.14 797.05 L 805.29 796.01 L 802.16 795.63 L 798.02 795.77 Z" fill="#333333" fill-rule="nonzero" group-id="5,16" id="路径" node-id="131" stroke="none" target-height="24.640015" target-width="59.679993" target-x="791.75" target-y="795.63"></path></g><path d="M 685.66 752.98 L 689.41 747.55 L 694.29 740.81 L 699.65 733.85 L 705.93 726.30 L 712.70 718.90 L 720.14 711.66 L 725.39 707.10 L 730.83 702.90 L 736.48 699.07 L 742.38 695.66 L 748.38 692.88 L 754.52 690.71 L 759.25 689.52 L 764.03 688.80 L 768.89 688.55 L 773.84 688.77 L 776.77 689.32 L 779.58 690.30 L 782.30 691.72 L 784.96 693.63 L 788.15 696.59 L 791.25 700.21 L 794.25 704.57 L 796.90 709.16 L 799.44 714.24 L 801.85 719.83 L 805.04 728.46 L 807.90 737.62 L 810.39 746.94 L 812.53 756.17 L 814.39 765.30 L 815.90 773.69 L 818.13 788.40 L 819.36 798.54 L 819.74 802.31 L 799.04 805.68 L 763.51 737.34 L 701.18 815.85 L 655.78 798.39 L 685.66 752.98 Z" fill="url(#linearGradient-24)" fill-rule="nonzero" group-id="5" id="Fill-1706" node-id="132" stroke="none" target-height="127.29999" target-width="163.95996" target-x="655.78" target-y="688.55"></path><path d="M 579.58 751.73 L 577.55 759.72 L 575.84 768.45 L 574.62 777.37 L 573.97 786.42 L 573.88 792.48 L 574.13 798.34 L 574.70 804.02 L 575.66 809.63 L 577.01 814.81 L 578.75 819.59 L 580.39 823.05 L 582.29 826.17 L 584.44 828.98 L 586.85 831.50 L 589.54 833.70 L 592.55 835.53 L 595.93 837.00 L 599.72 838.11 L 604.92 839.05 L 610.82 839.70 L 617.07 840.07 L 624.59 840.24 L 642.47 840.15 L 665.91 839.87 L 696.35 839.82 L 727.84 840.02 L 741.92 839.78 L 753.74 839.06 L 761.36 838.13 L 767.80 836.83 L 773.22 835.20 L 777.14 833.51 L 780.44 831.53 L 783.18 829.26 L 785.43 826.70 L 786.87 824.43 L 788.02 821.85 L 788.87 818.93 L 789.39 815.60 L 789.56 811.82 L 789.23 808.56 L 788.45 805.66 L 787.24 803.07 L 785.59 800.75 L 783.58 798.69 L 781.24 796.82 L 778.52 795.12 L 775.39 793.60 L 771.08 791.99 L 766.33 790.63 L 761.11 789.54 L 753.15 788.40 L 744.89 787.71 L 736.63 787.37 L 728.85 787.28 L 715.15 787.40 L 709.49 787.40 L 705.91 787.24 L 696.71 786.70 L 683.11 786.24 L 667.22 785.86 L 651.18 785.57 L 637.10 785.36 L 627.09 785.24 L 623.28 785.19 L 579.58 751.73 Z" fill="url(#linearGradient-25)" fill-rule="nonzero" group-id="5" id="Fill-1708" node-id="133" stroke="none" target-height="88.51001" target-width="215.68" target-x="573.88" target-y="751.73"></path><path d="M 702.50 661.08 L 699.58 658.31 L 690.48 649.97 L 687.45 647.55 L 685.15 645.36 L 683.45 643.38 L 681.40 640.24 L 680.30 637.63 L 679.76 635.09 L 679.70 633.09 L 679.97 631.28 L 680.32 630.11 L 680.83 629.04 L 677.71 629.02 L 674.37 629.17 L 669.27 629.68 L 663.72 630.56 L 656.87 632.11 L 652.24 633.43 L 647.25 635.18 L 641.87 637.37 L 636.64 639.87 L 631.23 642.92 L 625.62 646.56 L 620.28 650.57 L 614.90 655.28 L 609.48 660.76 L 605.73 665.06 L 602.03 669.85 L 598.39 675.17 L 594.82 681.03 L 591.85 686.73 L 589.14 692.80 L 586.69 699.28 L 583.56 709.18 L 580.97 719.23 L 578.86 729.28 L 577.25 738.66 L 575.97 747.72 L 575.10 755.31 L 574.11 766.94 L 573.88 771.32 L 575.61 772.89 L 577.74 774.42 L 581.59 776.66 L 586.21 778.80 L 593.00 781.23 L 597.86 782.61 L 603.81 783.94 L 611.01 785.20 L 618.24 786.12 L 626.78 786.79 L 636.80 787.18 L 646.79 787.18 L 658.32 786.72 L 671.54 785.76 L 673.36 782.31 L 678.16 773.21 L 684.97 760.38 L 692.80 745.74 L 700.67 731.18 L 707.61 718.62 L 709.62 714.49 L 711.13 710.11 L 712.14 705.46 L 712.65 700.48 L 712.61 695.13 L 712.00 689.36 L 710.75 683.13 L 708.81 676.37 L 706.08 669.04 L 702.50 661.08 Z" fill="url(#linearGradient-26)" fill-rule="nonzero" group-id="5" id="Fill-1709" node-id="134" stroke="none" target-height="158.15997" target-width="138.77002" target-x="573.88" target-y="629.02"></path><path d="M 844.16 714.56 L 806.43 728.29 L 807.80 732.07 L 845.54 718.33 Z" fill="#000000" fill-rule="evenodd" group-id="5,17" id="矩形" node-id="135" stroke="none" target-height="17.51001" target-width="39.109985" target-x="806.43" target-y="714.56"></path><path d="M 799.86 732.05 L 808.25 727.87 L 809.66 726.60 L 811.77 725.26 L 814.28 724.70 L 815.53 724.75 L 816.08 725.10 L 816.22 725.73 L 815.95 726.87 L 815.31 727.85 L 814.27 728.71 L 819.42 727.62 L 824.30 725.19 L 827.12 724.12 L 829.03 723.86 L 830.31 724.14 L 831.19 724.83 L 831.75 726.01 L 831.95 727.93 L 831.47 729.50 L 830.67 731.07 L 829.51 732.66 L 828.12 734.03 L 826.36 735.26 L 824.16 736.35 L 821.83 737.09 L 819.03 737.54 L 815.68 737.64 L 813.93 737.26 L 811.78 737.17 L 809.13 737.45 L 805.88 738.19 L 799.86 732.05 Z" fill="#efba9e" fill-rule="nonzero" group-id="5,18" id="路径-50备份" node-id="136" stroke="none" target-height="14.330017" target-width="32.090027" target-x="799.86" target-y="723.86"></path><path d="M 804.49 728.62 L 719.54 760.69 L 697.04 671.71 L 694.75 667.10 L 692.20 663.22 L 689.43 659.98 L 686.42 657.31 L 683.15 655.18 L 679.60 653.54 L 675.73 652.39 L 671.47 651.75 L 666.78 651.64 L 661.57 652.12 L 657.74 654.22 L 654.48 656.66 L 651.73 659.43 L 649.40 662.56 L 647.56 665.94 L 646.20 669.59 L 645.31 673.39 L 644.90 677.35 L 644.97 681.50 L 645.47 685.02 L 646.75 690.70 L 648.48 696.94 L 650.89 704.62 L 653.64 712.61 L 656.91 721.34 L 660.48 730.13 L 664.37 738.96 L 668.53 747.59 L 672.79 755.56 L 675.83 760.72 L 678.81 765.27 L 681.72 769.26 L 691.22 779.97 L 694.28 783.05 L 697.29 785.66 L 700.26 787.84 L 703.44 789.65 L 706.81 790.97 L 710.43 791.81 L 714.13 792.09 L 718.39 791.80 L 723.31 790.84 L 730.59 787.91 L 745.11 781.13 L 770.58 768.32 L 811.54 746.87 L 804.49 728.62 Z" fill="url(#linearGradient-27)" fill-rule="nonzero" group-id="5" id="路径-3" node-id="137" stroke="none" target-height="140.45001" target-width="166.63995" target-x="644.9" target-y="651.64"></path></g></svg>