<?xml version="1.0" standalone="no"?><!DOCTYPE svg PUBLIC "-//W3C//DTD SVG 1.1//EN" "http://www.w3.org/Graphics/SVG/1.1/DTD/svg11.dtd"><svg height="1024" node-id="1" sillyvg="true" template-height="1024" template-width="1024" version="1.1" viewBox="0 0 1024 1024" width="1024" xmlns="http://www.w3.org/2000/svg" xmlns:xlink="http://www.w3.org/1999/xlink"><defs node-id="148"><linearGradient gradientUnits="userSpaceOnUse" id="SVGID_1_" node-id="68" spreadMethod="pad" x1="503.256" x2="511.6131" y1="622.252" y2="753.951"><stop offset="0" stop-color="#91b3ff"></stop><stop offset="0.4022" stop-color="#6791f2"></stop><stop offset="0.7939" stop-color="#3b6ce4"></stop></linearGradient><linearGradient gradientUnits="userSpaceOnUse" id="SVGID_2_" node-id="73" spreadMethod="pad" x1="518.961" x2="522.944" y1="619.2672" y2="682.0345"><stop offset="0" stop-color="#91b3ff"></stop><stop offset="0.2484" stop-color="#6795ec"></stop><stop offset="0.7939" stop-color="#004cbf"></stop></linearGradient><linearGradient gradientUnits="userSpaceOnUse" id="SVGID_3_" node-id="82" spreadMethod="pad" x1="743.4358" x2="706.483" y1="650.0374" y2="599.7522"><stop offset="0" stop-color="#efbb81"></stop><stop offset="0.5011" stop-color="#f79e57"></stop><stop offset="1" stop-color="#ff7f2a"></stop></linearGradient><linearGradient gradientUnits="userSpaceOnUse" id="SVGID_4_" node-id="91" spreadMethod="pad" x1="801.7661" x2="780.6832" y1="687.5665" y2="658.8769"><stop offset="0" stop-color="#efbb81"></stop><stop offset="0.5011" stop-color="#f79e57"></stop><stop offset="1" stop-color="#ff7f2a"></stop></linearGradient></defs><g node-id="471"><path d="M 609.00 596.60 L 414.00 596.60 C 410.70 596.60 408.00 593.90 408.00 590.60 L 408.00 590.60 C 408.00 587.30 410.70 584.60 414.00 584.60 L 609.00 584.60 C 612.30 584.60 615.00 587.30 615.00 590.60 L 615.00 590.60 C 615.00 593.90 612.30 596.60 609.00 596.60 Z" fill="#274da0" fill-rule="nonzero" group-id="1" node-id="187" stroke="none" target-height="12" target-width="207" target-x="408" target-y="584.6"></path><g node-id="476"><path d="M 446.00 595.66 L 446.00 641.66 L 434.00 641.66 L 434.00 595.66 Z" fill="#274da0" fill-rule="nonzero" group-id="1,6" node-id="191" stroke="none" target-height="46" target-width="12" target-x="434" target-y="595.66"></path></g><path d="M 588.00 595.66 L 588.00 641.66 L 576.00 641.66 L 576.00 595.66 Z" fill="#274da0" fill-rule="nonzero" group-id="1,7" node-id="196" stroke="none" target-height="46" target-width="12" target-x="576" target-y="595.66"></path></g><g node-id="472"><g node-id="478"><path d="M 162.50 717.10 L 162.50 511.30 L 244.90 511.30 L 244.90 363.10 L 385.50 363.10 L 385.50 717.10 Z" fill="#ccdafe" fill-rule="nonzero" group-id="2,8" node-id="204" stroke="none" target-height="353.99997" target-width="223" target-x="162.5" target-y="363.1"></path><g node-id="486"><path d="M 258.90 387.60 L 287.70 387.60 L 287.70 410.60 L 258.90 410.60 Z" fill="#a8beef" fill-rule="nonzero" group-id="2,8,16" node-id="208" stroke="none" target-height="23" target-width="28.800018" target-x="258.9" target-y="387.6"></path><path d="M 302.10 387.60 L 330.90 387.60 L 330.90 410.60 L 302.10 410.60 Z" fill="#a8beef" fill-rule="nonzero" group-id="2,8,16" node-id="210" stroke="none" target-height="23" target-width="28.799988" target-x="302.1" target-y="387.6"></path><path d="M 345.30 387.60 L 374.10 387.60 L 374.10 410.60 L 345.30 410.60 Z" fill="#a8beef" fill-rule="nonzero" group-id="2,8,16" node-id="212" stroke="none" target-height="23" target-width="28.800018" target-x="345.3" target-y="387.6"></path><path d="M 258.90 423.60 L 287.70 423.60 L 287.70 446.60 L 258.90 446.60 Z" fill="#a8beef" fill-rule="nonzero" group-id="2,8,16" node-id="214" stroke="none" target-height="23" target-width="28.800018" target-x="258.9" target-y="423.6"></path><path d="M 302.10 423.60 L 330.90 423.60 L 330.90 446.60 L 302.10 446.60 Z" fill="#a8beef" fill-rule="nonzero" group-id="2,8,16" node-id="216" stroke="none" target-height="23" target-width="28.799988" target-x="302.1" target-y="423.6"></path><path d="M 345.30 423.60 L 374.10 423.60 L 374.10 446.60 L 345.30 446.60 Z" fill="#a8beef" fill-rule="nonzero" group-id="2,8,16" node-id="218" stroke="none" target-height="23" target-width="28.800018" target-x="345.3" target-y="423.6"></path><path d="M 258.90 459.50 L 287.70 459.50 L 287.70 482.50 L 258.90 482.50 Z" fill="#a8beef" fill-rule="nonzero" group-id="2,8,16" node-id="220" stroke="none" target-height="23" target-width="28.800018" target-x="258.9" target-y="459.5"></path><path d="M 302.10 459.50 L 330.90 459.50 L 330.90 482.50 L 302.10 482.50 Z" fill="#a8beef" fill-rule="nonzero" group-id="2,8,16" node-id="222" stroke="none" target-height="23" target-width="28.799988" target-x="302.1" target-y="459.5"></path><path d="M 345.30 459.50 L 374.10 459.50 L 374.10 482.50 L 345.30 482.50 Z" fill="#a8beef" fill-rule="nonzero" group-id="2,8,16" node-id="224" stroke="none" target-height="23" target-width="28.800018" target-x="345.3" target-y="459.5"></path><path d="M 258.90 495.50 L 287.70 495.50 L 287.70 518.50 L 258.90 518.50 Z" fill="#a8beef" fill-rule="nonzero" group-id="2,8,16" node-id="226" stroke="none" target-height="23" target-width="28.800018" target-x="258.9" target-y="495.5"></path><path d="M 302.10 495.50 L 330.90 495.50 L 330.90 518.50 L 302.10 518.50 Z" fill="#a8beef" fill-rule="nonzero" group-id="2,8,16" node-id="228" stroke="none" target-height="23" target-width="28.799988" target-x="302.1" target-y="495.5"></path><path d="M 345.30 495.50 L 374.10 495.50 L 374.10 518.50 L 345.30 518.50 Z" fill="#a8beef" fill-rule="nonzero" group-id="2,8,16" node-id="230" stroke="none" target-height="23" target-width="28.800018" target-x="345.3" target-y="495.5"></path><path d="M 258.90 531.50 L 287.70 531.50 L 287.70 554.50 L 258.90 554.50 Z" fill="#a8beef" fill-rule="nonzero" group-id="2,8,16" node-id="232" stroke="none" target-height="23" target-width="28.800018" target-x="258.9" target-y="531.5"></path><path d="M 215.70 531.50 L 244.50 531.50 L 244.50 554.50 L 215.70 554.50 Z" fill="#a8beef" fill-rule="nonzero" group-id="2,8,16" node-id="234" stroke="none" target-height="23" target-width="28.800003" target-x="215.7" target-y="531.5"></path><path d="M 172.60 531.50 L 201.40 531.50 L 201.40 554.50 L 172.60 554.50 Z" fill="#a8beef" fill-rule="nonzero" group-id="2,8,16" node-id="236" stroke="none" target-height="23" target-width="28.799988" target-x="172.6" target-y="531.5"></path><path d="M 302.10 531.50 L 330.90 531.50 L 330.90 554.50 L 302.10 554.50 Z" fill="#a8beef" fill-rule="nonzero" group-id="2,8,16" node-id="238" stroke="none" target-height="23" target-width="28.799988" target-x="302.1" target-y="531.5"></path><path d="M 345.30 531.50 L 374.10 531.50 L 374.10 554.50 L 345.30 554.50 Z" fill="#a8beef" fill-rule="nonzero" group-id="2,8,16" node-id="240" stroke="none" target-height="23" target-width="28.800018" target-x="345.3" target-y="531.5"></path><path d="M 258.90 567.50 L 287.70 567.50 L 287.70 590.50 L 258.90 590.50 Z" fill="#a8beef" fill-rule="nonzero" group-id="2,8,16" node-id="242" stroke="none" target-height="23" target-width="28.800018" target-x="258.9" target-y="567.5"></path><path d="M 215.70 567.50 L 244.50 567.50 L 244.50 590.50 L 215.70 590.50 Z" fill="#a8beef" fill-rule="nonzero" group-id="2,8,16" node-id="244" stroke="none" target-height="23" target-width="28.800003" target-x="215.7" target-y="567.5"></path><path d="M 172.60 567.50 L 201.40 567.50 L 201.40 590.50 L 172.60 590.50 Z" fill="#a8beef" fill-rule="nonzero" group-id="2,8,16" node-id="246" stroke="none" target-height="23" target-width="28.799988" target-x="172.6" target-y="567.5"></path><path d="M 302.10 567.50 L 330.90 567.50 L 330.90 590.50 L 302.10 590.50 Z" fill="#a8beef" fill-rule="nonzero" group-id="2,8,16" node-id="248" stroke="none" target-height="23" target-width="28.799988" target-x="302.1" target-y="567.5"></path><path d="M 345.30 567.50 L 374.10 567.50 L 374.10 590.50 L 345.30 590.50 Z" fill="#a8beef" fill-rule="nonzero" group-id="2,8,16" node-id="250" stroke="none" target-height="23" target-width="28.800018" target-x="345.3" target-y="567.5"></path><path d="M 258.90 603.40 L 287.70 603.40 L 287.70 626.40 L 258.90 626.40 Z" fill="#a8beef" fill-rule="nonzero" group-id="2,8,16" node-id="252" stroke="none" target-height="23" target-width="28.800018" target-x="258.9" target-y="603.4"></path><path d="M 215.70 603.40 L 244.50 603.40 L 244.50 626.40 L 215.70 626.40 Z" fill="#a8beef" fill-rule="nonzero" group-id="2,8,16" node-id="254" stroke="none" target-height="23" target-width="28.800003" target-x="215.7" target-y="603.4"></path><path d="M 172.60 603.40 L 201.40 603.40 L 201.40 626.40 L 172.60 626.40 Z" fill="#a8beef" fill-rule="nonzero" group-id="2,8,16" node-id="256" stroke="none" target-height="23" target-width="28.799988" target-x="172.6" target-y="603.4"></path><path d="M 302.10 603.40 L 330.90 603.40 L 330.90 626.40 L 302.10 626.40 Z" fill="#a8beef" fill-rule="nonzero" group-id="2,8,16" node-id="258" stroke="none" target-height="23" target-width="28.799988" target-x="302.1" target-y="603.4"></path><path d="M 345.30 603.40 L 374.10 603.40 L 374.10 626.40 L 345.30 626.40 Z" fill="#a8beef" fill-rule="nonzero" group-id="2,8,16" node-id="260" stroke="none" target-height="23" target-width="28.800018" target-x="345.3" target-y="603.4"></path><path d="M 258.90 639.40 L 287.70 639.40 L 287.70 662.40 L 258.90 662.40 Z" fill="#a8beef" fill-rule="nonzero" group-id="2,8,16" node-id="262" stroke="none" target-height="23" target-width="28.800018" target-x="258.9" target-y="639.4"></path><path d="M 215.70 639.40 L 244.50 639.40 L 244.50 662.40 L 215.70 662.40 Z" fill="#a8beef" fill-rule="nonzero" group-id="2,8,16" node-id="264" stroke="none" target-height="23" target-width="28.800003" target-x="215.7" target-y="639.4"></path><path d="M 172.60 639.40 L 201.40 639.40 L 201.40 662.40 L 172.60 662.40 Z" fill="#a8beef" fill-rule="nonzero" group-id="2,8,16" node-id="266" stroke="none" target-height="23" target-width="28.799988" target-x="172.6" target-y="639.4"></path><path d="M 302.10 639.40 L 330.90 639.40 L 330.90 662.40 L 302.10 662.40 Z" fill="#a8beef" fill-rule="nonzero" group-id="2,8,16" node-id="268" stroke="none" target-height="23" target-width="28.799988" target-x="302.1" target-y="639.4"></path><path d="M 345.30 639.40 L 374.10 639.40 L 374.10 662.40 L 345.30 662.40 Z" fill="#a8beef" fill-rule="nonzero" group-id="2,8,16" node-id="270" stroke="none" target-height="23" target-width="28.800018" target-x="345.3" target-y="639.4"></path></g></g><g node-id="479"><path d="M 634.50 714.30 L 634.50 584.70 L 697.80 584.70 L 697.80 435.10 L 794.30 435.10 L 794.30 505.60 L 850.40 505.60 L 850.40 714.30 Z" fill="#ccdafe" fill-rule="nonzero" group-id="2,9" node-id="276" stroke="none" target-height="279.19998" target-width="215.90002" target-x="634.5" target-y="435.1"></path><g node-id="487"><path d="M 712.20 453.80 L 741.00 453.80 L 741.00 476.80 L 712.20 476.80 Z" fill="#a8beef" fill-rule="nonzero" group-id="2,9,17" node-id="280" stroke="none" target-height="23" target-width="28.799988" target-x="712.2" target-y="453.8"></path><path d="M 752.50 453.80 L 781.30 453.80 L 781.30 476.80 L 752.50 476.80 Z" fill="#a8beef" fill-rule="nonzero" group-id="2,9,17" node-id="282" stroke="none" target-height="23" target-width="28.799988" target-x="752.5" target-y="453.8"></path><path d="M 712.20 597.70 L 741.00 597.70 L 741.00 620.70 L 712.20 620.70 Z" fill="#a8beef" fill-rule="nonzero" group-id="2,9,17" node-id="284" stroke="none" target-height="23" target-width="28.799988" target-x="712.2" target-y="597.7"></path><path d="M 671.90 597.70 L 700.70 597.70 L 700.70 620.70 L 671.90 620.70 Z" fill="#a8beef" fill-rule="nonzero" group-id="2,9,17" node-id="286" stroke="none" target-height="23" target-width="28.799988" target-x="671.9" target-y="597.7"></path><path d="M 671.90 633.70 L 700.70 633.70 L 700.70 656.70 L 671.90 656.70 Z" fill="#a8beef" fill-rule="nonzero" group-id="2,9,17" node-id="288" stroke="none" target-height="23" target-width="28.799988" target-x="671.9" target-y="633.7"></path><path d="M 752.50 597.70 L 781.30 597.70 L 781.30 620.70 L 752.50 620.70 Z" fill="#a8beef" fill-rule="nonzero" group-id="2,9,17" node-id="290" stroke="none" target-height="23" target-width="28.799988" target-x="752.5" target-y="597.7"></path><path d="M 712.20 489.80 L 741.00 489.80 L 741.00 512.80 L 712.20 512.80 Z" fill="#a8beef" fill-rule="nonzero" group-id="2,9,17" node-id="292" stroke="none" target-height="23" target-width="28.799988" target-x="712.2" target-y="489.8"></path><path d="M 752.50 489.80 L 781.30 489.80 L 781.30 512.80 L 752.50 512.80 Z" fill="#a8beef" fill-rule="nonzero" group-id="2,9,17" node-id="294" stroke="none" target-height="23" target-width="28.799988" target-x="752.5" target-y="489.8"></path><path d="M 712.20 525.70 L 741.00 525.70 L 741.00 548.70 L 712.20 548.70 Z" fill="#a8beef" fill-rule="nonzero" group-id="2,9,17" node-id="296" stroke="none" target-height="23" target-width="28.799988" target-x="712.2" target-y="525.7"></path><path d="M 752.50 525.70 L 781.30 525.70 L 781.30 548.70 L 752.50 548.70 Z" fill="#a8beef" fill-rule="nonzero" group-id="2,9,17" node-id="298" stroke="none" target-height="23" target-width="28.799988" target-x="752.5" target-y="525.7"></path><path d="M 792.80 525.70 L 821.60 525.70 L 821.60 548.70 L 792.80 548.70 Z" fill="#a8beef" fill-rule="nonzero" group-id="2,9,17" node-id="300" stroke="none" target-height="23" target-width="28.799988" target-x="792.8" target-y="525.7"></path><path d="M 792.80 561.70 L 821.60 561.70 L 821.60 584.70 L 792.80 584.70 Z" fill="#a8beef" fill-rule="nonzero" group-id="2,9,17" node-id="302" stroke="none" target-height="23" target-width="28.799988" target-x="792.8" target-y="561.7"></path><path d="M 792.80 597.70 L 821.60 597.70 L 821.60 620.70 L 792.80 620.70 Z" fill="#a8beef" fill-rule="nonzero" group-id="2,9,17" node-id="304" stroke="none" target-height="23" target-width="28.799988" target-x="792.8" target-y="597.7"></path><path d="M 792.80 633.70 L 821.60 633.70 L 821.60 656.70 L 792.80 656.70 Z" fill="#a8beef" fill-rule="nonzero" group-id="2,9,17" node-id="306" stroke="none" target-height="23" target-width="28.799988" target-x="792.8" target-y="633.7"></path><path d="M 712.20 561.70 L 741.00 561.70 L 741.00 584.70 L 712.20 584.70 Z" fill="#a8beef" fill-rule="nonzero" group-id="2,9,17" node-id="308" stroke="none" target-height="23" target-width="28.799988" target-x="712.2" target-y="561.7"></path><path d="M 752.50 561.70 L 781.30 561.70 L 781.30 584.70 L 752.50 584.70 Z" fill="#a8beef" fill-rule="nonzero" group-id="2,9,17" node-id="310" stroke="none" target-height="23" target-width="28.799988" target-x="752.5" target-y="561.7"></path><path d="M 712.20 633.70 L 741.00 633.70 L 741.00 656.70 L 712.20 656.70 Z" fill="#a8beef" fill-rule="nonzero" group-id="2,9,17" node-id="312" stroke="none" target-height="23" target-width="28.799988" target-x="712.2" target-y="633.7"></path><path d="M 752.50 633.70 L 781.30 633.70 L 781.30 656.70 L 752.50 656.70 Z" fill="#a8beef" fill-rule="nonzero" group-id="2,9,17" node-id="314" stroke="none" target-height="23" target-width="28.799988" target-x="752.5" target-y="633.7"></path></g></g><g node-id="480"><g node-id="488"><path d="M 92.00 751.70 C 92.00 751.70 256.10 620.70 503.60 620.70 C 736.70 620.70 931.00 751.70 931.00 751.70 C 931.00 751.70 865.50 727.00 726.60 724.40 C 650.30 723.00 594.20 748.90 500.70 748.90 C 412.90 748.90 350.90 736.80 257.50 733.10 C 170.90 729.50 92.00 751.70 92.00 751.70 Z" fill="url(#SVGID_1_)" fill-rule="nonzero" group-id="2,10,18" node-id="322" stroke="none" target-height="131" target-width="839" target-x="92" target-y="620.7"></path><path d="M 428.70 624.70 C 423.20 628.50 420.10 632.80 420.10 637.20 C 420.10 654.30 464.90 668.10 520.10 668.10 C 575.30 668.10 620.10 654.20 620.10 637.20 C 620.10 635.00 619.30 632.80 617.80 630.60 C 581.30 624.40 543.00 620.60 503.50 620.60 C 477.60 620.70 452.60 622.20 428.70 624.70 Z" fill="url(#SVGID_2_)" fill-rule="nonzero" group-id="2,10,18" node-id="324" stroke="none" target-height="47.5" target-width="199.99997" target-x="420.1" target-y="620.6"></path><g node-id="490"><path d="M 386.63 678.00 L 386.84 679.54 L 386.65 681.17 L 386.01 682.95 L 384.83 684.94 L 382.89 687.29 L 380.21 689.83 L 376.62 692.58 L 372.84 695.03 L 368.43 697.51 L 363.30 700.01 L 358.06 702.24 L 352.36 704.35 L 346.16 706.33 L 339.88 708.01 L 333.94 709.32 L 328.33 710.27 L 322.66 710.93 L 317.61 711.23 L 313.11 711.20 L 308.60 710.82 L 304.97 710.14 L 302.07 709.21 L 300.00 708.17 L 298.50 707.02 L 297.46 705.75 L 296.81 704.34 L 296.60 702.81 L 296.79 701.17 L 297.43 699.39 L 298.61 697.40 L 300.54 695.05 L 303.23 692.51 L 306.82 689.76 L 310.59 687.31 L 315.01 684.83 L 320.14 682.33 L 325.37 680.10 L 331.07 677.99 L 337.27 676.01 L 343.56 674.33 L 349.49 673.02 L 355.10 672.07 L 360.77 671.41 L 365.83 671.11 L 370.33 671.14 L 374.84 671.52 L 378.47 672.20 L 381.37 673.13 L 383.44 674.17 L 384.94 675.32 L 385.98 676.59 L 386.63 678.00 Z" fill="#3b6ce4" fill-rule="nonzero" group-id="2,10,18,20" node-id="328" stroke="none" target-height="40.119995" target-width="90.23999" target-x="296.6" target-y="671.11"></path></g><path d="M 561.79 700.51 L 567.09 702.36 L 571.77 704.38 L 575.87 706.56 L 579.78 709.11 L 582.76 711.56 L 584.96 713.92 L 586.32 715.95 L 587.07 717.77 L 587.31 719.43 L 587.10 721.01 L 586.39 722.43 L 585.26 723.68 L 583.62 724.77 L 581.36 725.69 L 578.22 726.42 L 574.38 726.78 L 569.72 726.71 L 565.09 726.22 L 560.09 725.28 L 554.65 723.85 L 549.35 722.00 L 544.67 719.98 L 540.56 717.80 L 536.66 715.25 L 533.68 712.80 L 531.48 710.45 L 530.12 708.42 L 529.37 706.60 L 529.13 704.93 L 529.34 703.35 L 530.05 701.93 L 531.18 700.68 L 532.81 699.59 L 535.08 698.67 L 538.22 697.95 L 542.06 697.58 L 546.72 697.65 L 551.34 698.14 L 556.35 699.08 L 561.79 700.51 Z" fill="#3b6ce4" fill-rule="nonzero" group-id="2,10,18,21" node-id="333" stroke="none" target-height="29.200012" target-width="58.179993" target-x="529.13" target-y="697.58"></path></g><g node-id="489"><g node-id="492"><path d="M 749.20 628.70 C 754.10 623.60 756.60 616.90 755.60 610.10 C 754.40 601.90 748.50 595.50 740.40 592.30 C 740.60 590.50 740.60 588.60 740.20 586.70 C 738.30 577.60 729.40 571.70 720.40 573.60 C 711.40 575.50 705.60 584.40 707.50 593.50 C 707.70 594.70 708.10 595.80 708.60 596.80 C 701.70 602.20 697.70 610.20 698.90 618.40 C 699.50 622.20 701.00 625.60 703.40 628.50 C 698.20 631.90 695.00 636.50 695.00 641.50 C 695.00 652.00 709.00 660.50 726.20 660.50 C 743.40 660.50 757.40 652.00 757.40 641.50 C 757.40 636.60 754.30 632.10 749.20 628.70 Z" fill="url(#SVGID_3_)" fill-rule="nonzero" group-id="2,10,19,22" node-id="341" stroke="none" target-height="88.79999" target-width="62.400024" target-x="695" target-y="571.7"></path><g node-id="494"><g node-id="496"><path d="M 725.50 687.00 L 725.50 687.00 C 724.60 686.50 724.00 684.50 724.30 682.70 C 728.70 647.10 725.60 627.90 724.10 621.40 C 723.70 619.80 724.00 618.00 724.70 617.00 L 724.70 617.00 C 725.60 615.70 726.80 616.30 727.30 618.40 C 729.10 626.40 732.40 647.30 727.70 684.50 C 727.50 686.40 726.50 687.60 725.50 687.00 Z" fill="#ff7f2a" fill-rule="nonzero" group-id="2,10,19,22,24,26" node-id="347" stroke="none" target-height="71.89996" target-width="8.700012" target-x="723.7" target-y="615.7"></path></g></g></g><g node-id="493"><path d="M 805.10 675.40 C 807.90 672.50 809.30 668.70 808.80 664.80 C 808.10 660.10 804.70 656.50 800.10 654.60 C 800.20 653.60 800.20 652.50 800.00 651.40 C 798.90 646.20 793.80 642.90 788.70 643.90 C 783.50 645.00 780.30 650.10 781.40 655.30 C 781.50 656.00 781.70 656.60 782.00 657.20 C 778.00 660.30 775.80 664.80 776.50 669.50 C 776.80 671.70 777.70 673.60 779.10 675.30 C 776.10 677.20 774.30 679.80 774.30 682.70 C 774.30 688.70 782.30 693.50 792.10 693.50 C 801.90 693.50 809.90 688.60 809.90 682.70 C 809.70 679.90 808.00 677.30 805.10 675.40 Z" fill="url(#SVGID_4_)" fill-rule="nonzero" group-id="2,10,19,23" node-id="354" stroke="none" target-height="50.599976" target-width="35.600037" target-x="774.3" target-y="642.9"></path><g node-id="495"><g node-id="497"><path d="M 791.60 708.70 L 791.60 708.70 C 791.10 708.40 790.80 707.30 790.90 706.20 C 793.40 685.90 791.70 675.00 790.80 671.20 C 790.60 670.30 790.70 669.30 791.10 668.70 L 791.10 668.70 C 791.60 667.90 792.30 668.30 792.60 669.50 C 793.60 674.00 795.50 686.00 792.80 707.20 C 792.70 708.30 792.10 709.00 791.60 708.70 Z" fill="#ff7f2a" fill-rule="nonzero" group-id="2,10,19,23,25,27" node-id="360" stroke="none" target-height="41.099976" target-width="4.9000244" target-x="790.6" target-y="667.9"></path></g></g></g></g></g></g><g node-id="473"><path d="M 716.40 552.80 L 306.60 552.80 C 301.00 552.80 296.50 548.30 296.50 542.70 L 296.50 282.90 C 296.50 277.30 301.00 272.80 306.60 272.80 L 716.40 272.80 C 722.00 272.80 726.50 277.30 726.50 282.90 L 726.50 542.70 C 726.50 548.30 721.90 552.80 716.40 552.80 Z" fill="#3b6ce4" fill-rule="nonzero" group-id="3" node-id="370" stroke="none" target-height="280" target-width="430" target-x="296.5" target-y="272.8"></path><path d="M 726.50 322.80 L 296.50 322.80 L 296.50 282.80 C 296.50 277.30 301.00 272.80 306.50 272.80 L 716.50 272.80 C 722.00 272.80 726.50 277.30 726.50 282.80 L 726.50 322.80 Z" fill="#5d94fa" fill-rule="nonzero" group-id="3" node-id="372" stroke="none" target-height="50" target-width="430" target-x="296.5" target-y="272.8"></path><path d="M 338.50 306.80 L 324.50 306.80 C 320.10 306.80 316.50 303.20 316.50 298.80 L 316.50 298.80 C 316.50 294.40 320.10 290.80 324.50 290.80 L 338.50 290.80 C 342.90 290.80 346.50 294.40 346.50 298.80 L 346.50 298.80 C 346.50 303.20 342.90 306.80 338.50 306.80 Z" fill="#ffffff" fill-rule="nonzero" group-id="3" node-id="374" stroke="none" target-height="16" target-width="30" target-x="316.5" target-y="290.8"></path><path d="M 634.50 306.80 L 364.50 306.80 C 360.10 306.80 356.50 303.20 356.50 298.80 L 356.50 298.80 C 356.50 294.40 360.10 290.80 364.50 290.80 L 634.60 290.80 C 639.00 290.80 642.60 294.40 642.60 298.80 L 642.60 298.80 C 642.50 303.20 639.00 306.80 634.50 306.80 Z" fill="#ffffff" fill-rule="nonzero" group-id="3" node-id="376" stroke="none" target-height="16" target-width="286.09998" target-x="356.5" target-y="290.8"></path><g node-id="481"><path d="M 689.40 281.80 C 689.40 284.56 687.16 286.80 684.40 286.80 C 681.64 286.80 679.40 284.56 679.40 281.80 C 679.40 279.04 681.64 276.80 684.40 276.80 C 687.16 276.80 689.40 279.04 689.40 281.80 Z" fill="#ffffff" fill-rule="nonzero" group-id="3,11" node-id="380" stroke="none" target-height="10" target-width="10" target-x="679.4" target-y="276.8"></path><path d="M 705.40 281.80 C 705.40 284.56 703.16 286.80 700.40 286.80 C 697.64 286.80 695.40 284.56 695.40 281.80 C 695.40 279.04 697.64 276.80 700.40 276.80 C 703.16 276.80 705.40 279.04 705.40 281.80 Z" fill="#ffffff" fill-rule="nonzero" group-id="3,11" node-id="382" stroke="none" target-height="10" target-width="10" target-x="695.4" target-y="276.8"></path><path d="M 721.40 281.80 C 721.40 284.56 719.16 286.80 716.40 286.80 C 713.64 286.80 711.40 284.56 711.40 281.80 C 711.40 279.04 713.64 276.80 716.40 276.80 C 719.16 276.80 721.40 279.04 721.40 281.80 Z" fill="#ffffff" fill-rule="nonzero" group-id="3,11" node-id="384" stroke="none" target-height="10" target-width="10" target-x="711.4" target-y="276.8"></path></g><g node-id="482"><path d="M 461.90 466.20 L 448.20 466.20 L 448.20 496.00 L 426.90 496.00 L 426.90 466.20 L 377.90 466.20 L 377.90 450.70 L 420.80 381.10 L 448.20 381.10 L 448.20 448.90 L 461.90 448.90 L 461.90 466.20 Z M 426.90 448.80 L 426.90 425.30 C 426.90 418.60 427.50 408.20 427.80 401.50 L 427.20 401.50 C 424.40 407.60 421.30 413.90 418.00 420.20 L 400.10 448.80 L 426.90 448.80 Z" fill="#285bbf" fill-rule="nonzero" group-id="3,12" node-id="389" stroke="none" target-height="114.899994" target-width="84" target-x="377.9" target-y="381.1"></path><path d="M 473.10 438.10 C 473.10 398.30 488.60 378.90 512.10 378.90 C 535.40 378.90 551.00 398.50 551.00 438.10 C 551.00 477.70 535.50 498.20 512.10 498.20 C 488.60 498.20 473.10 477.70 473.10 438.10 Z M 529.30 438.10 C 529.30 405.90 521.80 396.60 512.00 396.60 C 502.10 396.60 494.60 405.90 494.60 438.10 C 494.60 470.40 502.10 480.40 512.00 480.40 C 521.90 480.30 529.30 470.40 529.30 438.10 Z" fill="#285bbf" fill-rule="nonzero" group-id="3,12" node-id="391" stroke="none" target-height="119.30002" target-width="77.899994" target-x="473.1" target-y="378.9"></path><path d="M 645.00 466.20 L 631.30 466.20 L 631.30 496.00 L 610.00 496.00 L 610.00 466.20 L 561.00 466.20 L 561.00 450.70 L 603.90 381.10 L 631.30 381.10 L 631.30 448.90 L 645.00 448.90 L 645.00 466.20 Z M 610.00 448.80 L 610.00 425.30 C 610.00 418.60 610.60 408.20 610.90 401.50 L 610.30 401.50 C 607.50 407.60 604.40 413.90 601.10 420.20 L 583.20 448.80 L 610.00 448.80 Z" fill="#285bbf" fill-rule="nonzero" group-id="3,12" node-id="393" stroke="none" target-height="114.899994" target-width="84" target-x="561" target-y="381.1"></path></g><g node-id="483"><path d="M 461.70 459.80 L 448.00 459.80 L 448.00 489.60 L 426.70 489.60 L 426.70 459.80 L 377.70 459.80 L 377.70 444.30 L 420.60 374.70 L 448.00 374.70 L 448.00 442.50 L 461.70 442.50 L 461.70 459.80 Z M 426.70 442.40 L 426.70 418.90 C 426.70 412.20 427.30 401.80 427.60 395.10 L 427.00 395.10 C 424.20 401.20 421.10 407.50 417.80 413.80 L 400.00 442.40 L 426.70 442.40 Z" fill="#ffffff" fill-rule="nonzero" group-id="3,13" node-id="398" stroke="none" target-height="114.899994" target-width="84" target-x="377.7" target-y="374.7"></path><path d="M 472.90 431.60 C 472.90 391.80 488.40 372.40 511.90 372.40 C 535.20 372.40 550.80 392.00 550.80 431.60 C 550.80 471.20 535.30 491.70 511.90 491.70 C 488.40 491.80 472.90 471.30 472.90 431.60 Z M 529.10 431.60 C 529.10 399.40 521.60 390.10 511.80 390.10 C 501.90 390.10 494.40 399.40 494.40 431.60 C 494.40 463.90 501.90 473.90 511.80 473.90 C 521.70 473.90 529.10 464.00 529.10 431.60 Z" fill="#ffffff" fill-rule="nonzero" group-id="3,13" node-id="400" stroke="none" target-height="119.399994" target-width="77.899994" target-x="472.9" target-y="372.4"></path><path d="M 644.80 459.80 L 631.10 459.80 L 631.10 489.60 L 609.80 489.60 L 609.80 459.80 L 560.80 459.80 L 560.80 444.30 L 603.70 374.70 L 631.10 374.70 L 631.10 442.50 L 644.80 442.50 L 644.80 459.80 Z M 609.80 442.40 L 609.80 418.90 C 609.80 412.20 610.40 401.80 610.70 395.10 L 610.10 395.10 C 607.30 401.20 604.20 407.50 600.90 413.80 L 583.00 442.40 L 609.80 442.40 Z" fill="#ffffff" fill-rule="nonzero" group-id="3,13" node-id="402" stroke="none" target-height="114.899994" target-width="84" target-x="560.8" target-y="374.7"></path></g><g node-id="484"><path d="M 636.70 365.00 C 635.60 364.60 634.50 365.20 634.10 366.30 C 633.70 367.40 634.20 368.50 635.20 368.90 C 636.30 369.30 637.40 368.70 637.80 367.60 C 638.30 366.50 637.80 365.40 636.70 365.00 Z" fill="#285bbf" fill-rule="nonzero" group-id="3,14" node-id="407" stroke="none" target-height="4.6999817" target-width="4.5999756" target-x="633.7" target-y="364.6"></path><path d="M 644.20 358.40 C 645.10 355.80 643.80 353.90 641.40 353.00 C 639.60 352.40 637.90 352.70 636.40 353.50 L 637.50 355.60 C 638.40 355.20 639.30 355.00 640.20 355.30 C 641.30 355.70 641.70 356.60 641.30 357.60 C 640.60 359.50 636.70 359.60 636.00 363.00 L 638.60 363.90 C 639.30 361.00 643.20 361.30 644.20 358.40 Z" fill="#285bbf" fill-rule="nonzero" group-id="3,14" node-id="409" stroke="none" target-height="11.5" target-width="9.099976" target-x="636" target-y="352.4"></path><path d="M 657.30 366.40 C 656.30 364.80 654.70 364.00 653.00 363.80 L 652.60 366.10 C 653.60 366.30 654.40 366.60 654.90 367.40 C 655.50 368.30 655.30 369.30 654.40 369.90 C 652.70 371.00 649.50 368.70 646.90 371.10 L 648.40 373.40 C 650.80 371.50 653.70 374.00 656.30 372.40 C 658.60 370.90 658.70 368.60 657.30 366.40 Z" fill="#285bbf" fill-rule="nonzero" group-id="3,14" node-id="411" stroke="none" target-height="10.200012" target-width="11.799988" target-x="646.9" target-y="363.8"></path><path d="M 643.50 372.70 C 642.50 373.30 642.20 374.50 642.80 375.50 C 643.40 376.50 644.60 376.70 645.60 376.00 C 646.60 375.40 646.90 374.20 646.20 373.20 C 645.70 372.30 644.50 372.10 643.50 372.70 Z" fill="#285bbf" fill-rule="nonzero" group-id="3,14" node-id="413" stroke="none" target-height="4.600006" target-width="4.700012" target-x="642.2" target-y="372.1"></path><path d="M 622.10 364.10 C 621.00 364.30 620.40 365.40 620.60 366.60 C 620.90 367.70 621.90 368.40 623.00 368.20 C 624.10 368.00 624.70 366.90 624.50 365.70 C 624.20 364.60 623.20 363.90 622.10 364.10 Z" fill="#285bbf" fill-rule="nonzero" group-id="3,14" node-id="415" stroke="none" target-height="4.5" target-width="4.299988" target-x="620.4" target-y="363.9"></path><path d="M 619.60 351.50 C 617.80 351.90 616.50 353.10 615.60 354.60 L 617.70 355.80 C 618.20 355.00 618.90 354.30 619.80 354.10 C 620.90 353.90 621.70 354.40 622.00 355.40 C 622.50 357.40 619.20 359.60 620.40 362.90 L 623.10 362.30 C 622.10 359.40 625.60 357.60 624.90 354.60 C 624.30 351.80 622.10 350.90 619.60 351.50 Z" fill="#285bbf" fill-rule="nonzero" group-id="3,14" node-id="417" stroke="none" target-height="12" target-width="10" target-x="615.6" target-y="350.9"></path></g><g node-id="485"><path d="M 636.70 363.70 C 635.60 363.30 634.50 363.90 634.10 365.00 C 633.70 366.10 634.20 367.20 635.20 367.60 C 636.30 368.00 637.40 367.40 637.80 366.30 C 638.30 365.30 637.80 364.10 636.70 363.70 Z" fill="#efbb81" fill-rule="nonzero" group-id="3,15" node-id="422" stroke="none" target-height="4.700012" target-width="4.5999756" target-x="633.7" target-y="363.3"></path><path d="M 644.20 357.20 C 645.10 354.60 643.80 352.70 641.40 351.80 C 639.60 351.20 637.90 351.50 636.40 352.30 L 637.50 354.40 C 638.40 354.00 639.30 353.80 640.20 354.10 C 641.30 354.50 641.70 355.40 641.30 356.40 C 640.60 358.30 636.70 358.40 636.00 361.80 L 638.60 362.70 C 639.30 359.70 643.20 360.00 644.20 357.20 Z" fill="#efbb81" fill-rule="nonzero" group-id="3,15" node-id="424" stroke="none" target-height="11.5" target-width="9.099976" target-x="636" target-y="351.2"></path><path d="M 657.30 365.20 C 656.30 363.60 654.70 362.80 653.00 362.60 L 652.60 364.90 C 653.60 365.10 654.40 365.40 654.90 366.20 C 655.50 367.10 655.30 368.10 654.40 368.70 C 652.70 369.80 649.50 367.50 646.90 369.90 L 648.40 372.20 C 650.80 370.30 653.70 372.80 656.30 371.20 C 658.60 369.60 658.70 367.30 657.30 365.20 Z" fill="#efbb81" fill-rule="nonzero" group-id="3,15" node-id="426" stroke="none" target-height="10.199982" target-width="11.799988" target-x="646.9" target-y="362.6"></path><path d="M 643.50 371.40 C 642.50 372.00 642.20 373.20 642.80 374.20 C 643.40 375.20 644.60 375.40 645.60 374.70 C 646.60 374.10 646.90 372.90 646.20 371.90 C 645.70 371.00 644.50 370.80 643.50 371.40 Z" fill="#efbb81" fill-rule="nonzero" group-id="3,15" node-id="428" stroke="none" target-height="4.600006" target-width="4.700012" target-x="642.2" target-y="370.8"></path><path d="M 622.10 362.80 C 621.00 363.00 620.40 364.10 620.60 365.30 C 620.90 366.40 621.90 367.10 623.00 366.90 C 624.10 366.70 624.70 365.60 624.50 364.40 C 624.20 363.30 623.20 362.60 622.10 362.80 Z" fill="#efbb81" fill-rule="nonzero" group-id="3,15" node-id="430" stroke="none" target-height="4.5" target-width="4.299988" target-x="620.4" target-y="362.6"></path><path d="M 619.60 350.20 C 617.80 350.60 616.50 351.80 615.60 353.30 L 617.70 354.50 C 618.20 353.70 618.90 353.00 619.80 352.80 C 620.90 352.60 621.70 353.10 622.00 354.10 C 622.50 356.10 619.20 358.30 620.40 361.60 L 623.10 361.00 C 622.10 358.10 625.60 356.30 624.90 353.30 C 624.30 350.50 622.10 349.60 619.60 350.20 Z" fill="#efbb81" fill-rule="nonzero" group-id="3,15" node-id="432" stroke="none" target-height="12" target-width="10" target-x="615.6" target-y="349.6"></path></g></g><g node-id="474"><path d="M 549.50 576.40 L 473.40 576.40 C 472.30 576.40 471.40 575.50 471.40 574.40 L 471.40 532.30 C 471.40 531.20 472.30 530.30 473.40 530.30 L 549.50 530.30 C 550.60 530.30 551.50 531.20 551.50 532.30 L 551.50 574.40 C 551.50 575.50 550.60 576.40 549.50 576.40 Z" fill="#353535" fill-rule="nonzero" group-id="4" node-id="438" stroke="none" target-height="46.100037" target-width="80.100006" target-x="471.4" target-y="530.3"></path><path d="M 473.50 533.40 L 549.50 533.40 L 549.50 573.40 L 473.50 573.40 Z" fill="#ffffff" fill-rule="nonzero" group-id="4" node-id="440" stroke="none" target-height="40" target-width="76" target-x="473.5" target-y="533.4"></path></g><g node-id="475"><path d="M 508.70 559.90 L 517.70 559.90 L 517.70 575.30 L 507.90 575.30 Z" fill="#fdcaca" fill-rule="nonzero" group-id="5" node-id="445" stroke="none" target-height="15.399963" target-width="9.800018" target-x="507.9" target-y="559.9"></path><path d="M 501.60 550.50 C 501.60 550.50 499.20 550.20 499.00 551.80 C 498.70 553.40 499.50 556.80 500.10 557.30 C 501.10 558.40 503.30 556.30 503.30 556.30 L 501.60 550.50 Z" fill="#fdcaca" fill-rule="nonzero" group-id="5" node-id="447" stroke="none" target-height="8.200012" target-width="4.5999756" target-x="498.7" target-y="550.2"></path><path d="M 520.50 556.40 C 520.50 556.40 523.10 558.00 524.20 557.20 C 525.30 556.40 526.00 553.80 526.00 552.70 C 526.00 551.60 526.30 550.60 524.90 550.60 C 523.50 550.60 522.80 550.30 522.50 550.60 C 522.20 550.90 520.50 556.40 520.50 556.40 Z" fill="#fdcaca" fill-rule="nonzero" group-id="5" node-id="449" stroke="none" target-height="7.700012" target-width="5.799988" target-x="520.5" target-y="550.3"></path><path d="M 490.70 617.80 C 490.70 617.80 478.50 611.70 473.80 615.20 C 469.00 618.60 468.00 619.70 467.50 621.80 C 467.00 623.90 472.80 639.00 474.90 641.60 C 477.00 644.20 482.30 650.10 483.40 653.80 C 484.50 657.50 488.20 669.40 494.00 670.20 C 499.80 671.00 523.80 674.40 529.10 671.50 C 534.40 668.60 537.30 664.40 538.10 662.80 C 538.90 661.20 539.40 657.30 541.80 653.80 C 544.20 650.40 548.90 644.00 550.30 640.90 C 551.60 637.70 554.00 629.30 554.00 627.20 C 554.00 625.10 550.00 619.30 548.50 618.20 C 546.90 617.10 539.50 620.80 538.50 622.40 C 537.50 624.00 490.70 624.00 490.70 624.00 L 490.70 617.80 Z" fill="#274da0" fill-rule="nonzero" group-id="5" node-id="451" stroke="none" target-height="62.700012" target-width="87" target-x="467" target-y="611.7"></path><path d="M 526.40 526.90 C 522.00 519.70 513.30 527.30 512.70 527.90 C 512.10 528.50 509.10 525.50 502.30 529.20 C 497.70 531.70 497.80 533.30 497.20 541.50 C 496.60 549.70 500.30 551.10 500.30 551.10 C 500.30 551.10 500.80 551.10 501.60 551.20 C 501.60 552.90 501.60 554.80 501.70 556.10 C 501.70 556.10 502.10 560.80 505.50 563.40 C 508.00 565.20 509.50 565.70 511.70 565.90 C 514.70 566.10 518.30 565.20 520.80 561.30 C 521.50 560.20 521.70 557.60 521.70 557.60 L 523.10 550.40 C 526.40 549.20 530.80 534.00 526.40 526.90 Z" fill="#63393f" fill-rule="nonzero" group-id="5" node-id="453" stroke="none" target-height="46.399963" target-width="34.19998" target-x="496.6" target-y="519.7"></path><path d="M 555.20 613.90 C 553.90 609.40 550.40 599.20 550.40 599.20 L 550.40 599.20 C 549.20 594.50 546.00 588.20 545.60 587.70 C 545.10 586.90 542.90 579.70 539.70 578.40 C 533.60 575.90 527.90 573.70 526.30 571.60 C 524.70 569.50 521.10 567.60 521.10 567.60 C 521.10 567.60 515.70 568.60 511.20 568.30 C 506.90 568.00 505.40 567.00 504.40 567.40 C 504.10 567.50 502.90 570.00 500.80 571.10 C 498.70 572.20 496.60 570.60 482.80 579.80 C 482.80 579.80 479.40 581.10 476.70 589.00 C 476.00 591.20 475.60 592.80 475.30 593.90 L 475.30 593.90 C 475.30 593.90 470.80 608.60 469.50 613.00 C 468.80 615.30 469.60 616.70 470.50 617.50 C 471.30 616.80 472.40 616.00 473.70 615.10 C 477.10 612.70 484.10 615.00 488.00 616.60 C 488.00 620.50 489.30 625.30 485.90 632.30 C 482.50 639.40 484.80 656.30 488.00 660.60 C 491.20 664.80 495.70 668.50 496.70 668.50 C 496.70 668.50 517.80 671.10 524.40 669.60 C 531.00 668.00 536.00 656.90 536.80 655.30 C 537.60 653.70 542.30 645.00 540.50 640.20 C 538.70 635.40 535.50 633.30 535.50 633.30 C 535.50 633.30 536.00 628.40 536.50 622.60 C 537.40 622.50 538.00 622.30 538.10 622.20 C 539.20 620.60 546.60 616.90 548.10 618.00 C 548.60 618.30 549.20 619.00 550.00 620.00 L 552.30 619.40 C 552.40 619.40 556.50 618.40 555.20 613.90 Z M 486.10 604.50 C 486.40 605.70 487.30 609.10 487.70 612.50 L 483.70 610.40 L 486.10 604.50 Z M 537.60 613.10 C 538.00 608.80 538.30 605.30 538.30 604.90 C 538.30 604.70 538.30 604.60 538.40 604.60 L 541.10 611.30 L 537.60 613.10 Z" fill="#dbeefe" fill-rule="nonzero" group-id="5" node-id="455" stroke="none" target-height="104.099976" target-width="87.70001" target-x="468.8" target-y="567"></path><path d="M 512.30 572.10 C 512.30 572.10 518.10 572.20 520.50 571.50 C 522.90 570.80 524.40 569.70 524.40 569.70 L 521.20 567.70 C 521.20 567.70 516.60 568.50 513.00 568.40 C 509.40 568.40 504.50 567.00 504.50 567.20 C 504.50 567.40 501.80 570.30 501.80 570.30 C 501.80 570.30 508.80 572.00 512.30 572.10 Z" fill="#b9d8ed" fill-rule="nonzero" group-id="5" node-id="457" stroke="none" target-height="5.200012" target-width="22.600037" target-x="501.8" target-y="567"></path><path d="M 483.30 617.40 L 488.30 623.40 L 488.30 621.80 L 488.20 619.30 Z" fill="#173872" fill-rule="nonzero" group-id="5" node-id="459" stroke="none" target-height="6" target-width="5" target-x="483.3" target-y="617.4"></path><path d="M 536.40 625.90 L 539.40 623.90 L 536.20 627.90 Z" fill="#173872" fill-rule="nonzero" group-id="5" node-id="461" stroke="none" target-height="4" target-width="3.2000122" target-x="536.2" target-y="623.9"></path><path d="M 484.00 609.60 L 479.60 611.70 L 485.30 611.20 L 483.80 610.40 Z" fill="#b9d8ed" fill-rule="nonzero" group-id="5" node-id="463" stroke="none" target-height="2.1000366" target-width="5.6999817" target-x="479.6" target-y="609.6"></path><path d="M 540.40 609.60 L 544.40 611.80 L 539.90 611.80 L 541.00 611.20 Z" fill="#b9d8ed" fill-rule="nonzero" group-id="5" node-id="465" stroke="none" target-height="2.2000122" target-width="4.5" target-x="539.9" target-y="609.6"></path><path d="M 485.90 605.20 L 486.10 604.50 L 486.30 605.20 L 485.90 596.40 Z" fill="#b9d8ed" fill-rule="nonzero" group-id="5" node-id="467" stroke="none" target-height="8.799988" target-width="0.3999939" target-x="485.9" target-y="596.4"></path><path d="M 538.20 605.80 L 537.60 593.10 L 538.90 606.10 L 538.30 604.60 Z" fill="#b9d8ed" fill-rule="nonzero" group-id="5" node-id="469" stroke="none" target-height="13" target-width="1.3000488" target-x="537.6" target-y="593.1"></path></g></svg>